<svg width="86" height="24" viewBox="0 0 86 24" fill="white" xmlns="http://www.w3.org/2000/svg">
  <path d="M53.6611 0C54.2921 0.000345331 54.8037 0.512461 54.8037 1.14355V22.8574C54.8036 23.4885 54.2921 23.9997 53.6611 24H30.5879C29.9567 23.9999 29.4454 23.4886 29.4453 22.8574V1.14355C29.4453 0.512335 29.9567 0.000140103 30.5879 0H53.6611ZM35.4824 3.6123C35.2471 3.61236 35.003 3.67534 34.752 3.80078C34.5326 3.95765 34.3677 4.14672 34.2578 4.36621C34.1012 4.69557 34.0148 5.00184 33.999 5.28418C33.999 5.45656 33.9913 5.62941 33.9756 5.80176C33.9756 5.95859 33.9669 6.11662 33.9512 6.27344V6.36719C33.9199 6.91637 33.9043 7.41123 33.9043 7.85059V11.0059C33.9043 11.5395 33.8966 12.0583 33.8809 12.5605L33.8574 16.0215L33.834 17.8818V18.2354C33.8185 18.3764 33.8185 18.5103 33.834 18.6357C33.8497 18.714 33.8574 18.7928 33.8574 18.8711C33.8732 18.9494 33.8888 19.0282 33.9043 19.1064C33.9043 19.2003 33.9123 19.2948 33.9277 19.3887C33.9435 19.467 33.9678 19.5467 33.999 19.625L34.0928 19.7656C34.0929 19.8125 34.1163 19.8603 34.1631 19.9072C34.2417 20.0953 34.3754 20.2525 34.5635 20.3779C34.94 20.5505 35.3411 20.5901 35.7646 20.4961C36.0468 20.449 36.2515 20.3617 36.377 20.2363C36.4551 20.1739 36.5185 20.1113 36.5654 20.0488C36.6281 19.9705 36.6835 19.8908 36.7305 19.8125C36.7619 19.7187 36.7853 19.6319 36.8008 19.5537C36.8322 19.4598 36.8643 19.3732 36.8955 19.2949C36.9112 19.2011 36.9189 19.1223 36.9189 19.0596C36.9347 18.9814 36.9423 18.9181 36.9424 18.8711V18.6357L37.083 6.41406V5.75488C37.0987 5.66094 37.1074 5.55878 37.1074 5.44922C37.1074 5.35517 37.0987 5.26007 37.083 5.16602C37.083 5.07206 37.0753 4.96993 37.0596 4.86035C37.0441 4.76641 37.0207 4.6799 36.9893 4.60156C36.9737 4.5075 36.9504 4.41242 36.9189 4.31836C36.8406 4.14588 36.7533 4.02088 36.6592 3.94238C36.5025 3.78553 36.3221 3.69066 36.1182 3.65918C36.0241 3.64354 35.9213 3.63576 35.8115 3.63574C35.7176 3.62015 35.6077 3.61233 35.4824 3.6123ZM44.4834 3.70605C43.934 3.72175 43.4073 3.73047 42.9053 3.73047H40.9512C40.8256 3.73048 40.6995 3.73826 40.5742 3.75391C40.292 3.7853 40.0557 3.83183 39.8672 3.89453C39.742 3.92593 39.6086 3.98138 39.4678 4.05957C39.3424 4.12222 39.2471 4.1776 39.1846 4.22461C38.9809 4.35011 38.8547 4.50721 38.8076 4.69531C38.7765 4.77359 38.7608 4.86025 38.7607 4.9541V5.2373C38.7609 5.48821 38.8478 5.71605 39.0205 5.91992C39.2088 6.12369 39.4677 6.27306 39.7969 6.36719C39.9222 6.39855 40.0795 6.43057 40.2676 6.46191C40.4714 6.49328 40.6217 6.51655 40.7158 6.53223C40.8257 6.5479 41.0305 6.56345 41.3281 6.5791C41.6259 6.59479 41.9403 6.61031 42.2695 6.62598H43.8242V18.7295C43.8243 18.8862 43.8475 19.0357 43.8945 19.1768C43.9101 19.3336 43.9655 19.4994 44.0596 19.6719C44.1222 19.8129 44.2242 19.9546 44.3652 20.0957C44.5065 20.2055 44.7108 20.2762 44.9775 20.3076C45.4011 20.4017 45.7866 20.3619 46.1318 20.1895C46.351 20.0484 46.5005 19.8989 46.5791 19.7422L46.6494 19.6006C46.6497 19.5693 46.6811 19.5221 46.7432 19.46C46.7743 19.3818 46.7987 19.3106 46.8145 19.248C46.8299 19.1699 46.8378 19.0909 46.8379 19.0127C46.8534 18.8245 46.8767 18.6588 46.9082 18.5176C46.9237 18.4394 46.9316 18.3761 46.9316 18.3291V18.1406C46.916 18.0623 46.9082 17.9444 46.9082 17.7881V12.6074C46.9237 11.6345 46.9316 10.7787 46.9316 10.041C46.9472 9.3034 46.9551 8.65873 46.9551 8.10938C46.9551 7.5446 46.9472 7.01861 46.9316 6.53223H47.7324C48.0147 6.53222 48.2978 6.52447 48.5801 6.50879H50.1348C50.2441 6.50876 50.3543 6.50096 50.4639 6.48535C50.5891 6.45403 50.7076 6.42976 50.8174 6.41406C50.9269 6.3984 51.0378 6.37507 51.1475 6.34375C51.3666 6.29671 51.5395 6.22576 51.665 6.13184C51.8215 5.97519 51.9235 5.81 51.9707 5.6377C51.9862 5.55935 51.9951 5.47193 51.9951 5.37793C52.0106 5.26843 52.0185 5.16618 52.0186 5.07227C52.0186 4.85258 51.9313 4.64054 51.7588 4.43652C51.6802 4.32683 51.5784 4.24049 51.4531 4.17773C51.3275 4.09931 51.1939 4.03634 51.0527 3.98926C50.8645 3.91084 50.6755 3.85563 50.4873 3.82422C50.2993 3.79292 50.1029 3.76959 49.8994 3.75391C49.0049 3.72253 48.1014 3.70606 47.1914 3.70605C46.2969 3.69038 45.3934 3.69038 44.4834 3.70605ZM12.8164 7.16211C13.9127 7.16216 14.7675 7.42774 15.3809 7.95898C15.9992 8.49031 16.3955 9.18114 16.5693 10.0312L14.7432 10.3643C14.5934 9.87175 14.3547 9.47319 14.0264 9.16895C13.698 8.86472 13.2945 8.71295 12.8164 8.71289C12.3962 8.71289 12.0168 8.83574 11.6787 9.08203C11.3406 9.32354 11.0701 9.6909 10.8672 10.1836C10.6692 10.6762 10.5703 11.2923 10.5703 12.0312C10.5703 12.7267 10.6572 13.3259 10.8311 13.8281C11.0098 14.3303 11.2654 14.7169 11.5986 14.9873C11.9319 15.2578 12.3382 15.3926 12.8164 15.3926C13.4297 15.3925 13.9031 15.2308 14.2363 14.9072C14.5743 14.5789 14.7431 14.1612 14.7432 13.6543H16.5693C16.5693 14.3545 16.4165 14.9508 16.1123 15.4434C15.8129 15.9311 15.3834 16.3056 14.8232 16.5664C14.263 16.8272 13.5939 16.958 12.8164 16.958C11.9905 16.958 11.2706 16.7622 10.6572 16.3711C10.0487 15.9751 9.57539 15.4098 9.2373 14.6758C8.89922 13.9417 8.72953 13.0599 8.72949 12.0312C8.72949 10.9687 8.90325 10.0771 9.25098 9.35742C9.60355 8.63293 10.0868 8.08681 10.7002 7.71973C11.3185 7.34779 12.0242 7.16211 12.8164 7.16211ZM69.7451 13.2051C69.7452 13.9775 69.9409 14.535 70.332 14.8779C70.728 15.2209 71.2333 15.3926 71.8467 15.3926C72.4649 15.3925 72.9693 15.2208 73.3604 14.8779C73.7514 14.535 73.9472 13.9777 73.9473 13.2051V7.35059H75.6572V13.2051C75.6572 13.997 75.5054 14.6732 75.2012 15.2334C74.8969 15.7936 74.4597 16.221 73.8896 16.5156C73.3246 16.8102 72.6435 16.958 71.8467 16.958C71.0497 16.958 70.3658 16.8103 69.7959 16.5156C69.2308 16.221 68.7965 15.7936 68.4922 15.2334C68.188 14.6732 68.0352 13.9971 68.0352 13.2051V7.35059H69.7451V13.2051ZM3.79688 7.35059C4.52128 7.35062 5.12245 7.46442 5.60059 7.69141C6.07873 7.91359 6.43618 8.21311 6.67285 8.58984C6.9094 8.96653 7.02832 9.38402 7.02832 9.84277C7.02832 10.3741 6.87854 10.8283 6.5791 11.2051C6.2845 11.5818 5.86899 11.8474 5.33301 12.002C5.68545 12.0744 6.00216 12.2073 6.28223 12.4004C6.56218 12.5935 6.78206 12.8374 6.94141 13.1318C7.10561 13.4265 7.18749 13.7649 7.1875 14.1465C7.1875 14.4458 7.13446 14.7476 7.02832 15.0518C6.92688 15.3561 6.74819 15.6396 6.49219 15.9004C6.24106 16.1563 5.89552 16.3641 5.45605 16.5234C5.02144 16.678 4.47308 16.7548 3.81152 16.7549H0V7.35059H3.79688ZM24.5654 13.8555V7.35059H26.2754V16.7549H24.5361L20.2617 10.0703V16.7549H18.5518V7.35059H20.4209L24.5654 13.8555ZM59.6729 11.2773H63.7734V7.35059H65.4834V16.7549H63.7734V12.7695H59.6729V16.7549H57.9629V7.35059H59.6729V11.2773ZM81.9814 7.35059C82.706 7.35059 83.3069 7.46445 83.7852 7.69141C84.263 7.9135 84.6208 8.21235 84.8574 8.58887C85.094 8.96562 85.2129 9.3839 85.2129 9.84277C85.2129 10.3741 85.0632 10.8283 84.7637 11.2051C84.469 11.5818 84.0536 11.8474 83.5176 12.002C83.87 12.0744 84.1866 12.2072 84.4668 12.4004C84.7467 12.5935 84.9667 12.8373 85.126 13.1318C85.2901 13.4265 85.3721 13.7649 85.3721 14.1465C85.3721 14.4458 85.3191 14.7476 85.2129 15.0518C85.1114 15.356 84.9328 15.6395 84.6768 15.9004C84.4255 16.1563 84.0801 16.3641 83.6406 16.5234C83.2058 16.678 82.6576 16.7549 81.9961 16.7549H78.1846V7.35059H81.9814ZM1.70996 15.2627H3.76758C4.31323 15.2627 4.7117 15.1538 4.96289 14.9365C5.21889 14.7143 5.34668 14.4168 5.34668 14.0449C5.34663 13.6732 5.21664 13.3764 4.95605 13.1543C4.69523 12.9273 4.29891 12.8135 3.76758 12.8135H1.70996V15.2627ZM79.8945 15.2627H81.9521C82.4979 15.2627 82.8972 15.1539 83.1484 14.9365C83.4044 14.7143 83.5322 14.4168 83.5322 14.0449C83.5322 13.6732 83.4013 13.3764 83.1406 13.1543C82.8798 12.9273 82.4835 12.8135 81.9521 12.8135H79.8945V15.2627ZM1.70996 11.3213H3.72461C4.23154 11.3212 4.61521 11.2094 4.87598 10.9873C5.14152 10.7604 5.27433 10.4516 5.27441 10.0605C5.27441 9.68871 5.14448 9.39112 4.88379 9.16895C4.62778 8.94193 4.24544 8.82812 3.73828 8.82812H1.70996V11.3213ZM79.8945 11.3213H81.9092C82.4163 11.3212 82.8 11.2094 83.0605 10.9873C83.3263 10.7604 83.4599 10.4516 83.46 10.0605C83.46 9.68865 83.3292 9.39113 83.0684 9.16895C82.8124 8.94198 82.4307 8.82817 81.9238 8.82812H79.8945V11.3213Z"/>
</svg>
