<svg width="74" height="59" viewBox="0 0 74 59" fill="none" xmlns="http://www.w3.org/2000/svg">
<mask id="path-1-outside-1_4075_2975" maskUnits="userSpaceOnUse" x="0" y="0" width="74" height="59" fill="black">
<rect fill="white" width="74" height="59"/>
<path d="M64.25 5C66.8733 5.00003 69 7.12669 69 9.75C69 12.3013 66.9884 14.3818 64.4648 14.4941C65.6447 15.0273 65.9958 16.2349 65.999 16.2461L65.6279 35.0342C67.0399 35.7934 68 37.2845 68 39C68 40.7788 66.9677 42.3164 65.4697 43.0469L65.4219 45.5H66.749C67.4394 45.5 67.999 46.0597 67.999 46.75C67.999 47.4403 67.4394 48 66.749 48H65.3721L65.293 52.0039H66.749C67.4394 52.0039 67.999 52.5636 67.999 53.2539C67.999 53.9442 67.4394 54.5039 66.749 54.5039H7.25C6.55966 54.5039 6.00001 53.9442 6 53.2539C6 52.5636 6.55965 52.0039 7.25 52.0039H7.4707L7.41797 48H7.25C6.55966 48 6.00001 47.4403 6 46.75C6 46.0597 6.55965 45.5 7.25 45.5H7.38477L7.34668 42.6328C6.22773 41.8142 5.50002 40.4926 5.5 39C5.5 37.5495 6.1864 36.2595 7.25195 35.4365L7 16.2461C7 16.2461 7.39644 14.8669 8.77734 14.3994C6.62061 13.9506 5.00002 12.0399 5 9.75C5 7.12667 7.12667 5 9.75 5C12.3733 5.00003 14.5 7.12669 14.5 9.75C14.5 12.0277 12.8964 13.9297 10.7568 14.3916C14.2442 15.4112 15.8248 21.6899 17.8271 26.5166C19.2223 22.9734 20.6633 19.6917 22.8926 18.9209C20.6786 18.5172 19 16.5805 19 14.25C19 11.6267 21.1267 9.5 23.75 9.5C26.3733 9.50008 28.5 11.6267 28.5 14.25C28.5 16.5124 26.9177 18.4038 24.7998 18.8818C26.7356 19.4645 28.0814 21.9225 29.3066 24.8389C31.1382 20.3037 32.722 15.2116 35.6387 14.3682C33.5516 13.8678 32 11.9905 32 9.75C32 7.12667 34.1267 5 36.75 5C39.3733 5.00003 41.5 7.12669 41.5 9.75C41.5 12.0999 39.7931 14.0495 37.5518 14.4307C40.6881 15.5594 42.2607 21.6757 44.3604 26.4307C45.745 22.9203 47.1812 19.6853 49.3926 18.9209C47.1785 18.5173 45.5 16.5806 45.5 14.25C45.5 11.6267 47.6267 9.5 50.25 9.5C52.8731 9.50023 55 11.6268 55 14.25C55 16.5123 53.4176 18.4037 51.2998 18.8818C53.2152 19.4585 54.5527 21.8711 55.7676 24.7471C57.5986 20.0065 59.3516 14.695 62.8066 14.2754C60.8892 13.6644 59.5 11.87 59.5 9.75C59.5 7.12667 61.6267 5 64.25 5Z"/>
</mask>
<path d="M64.25 5C66.8733 5.00003 69 7.12669 69 9.75C69 12.3013 66.9884 14.3818 64.4648 14.4941C65.6447 15.0273 65.9958 16.2349 65.999 16.2461L65.6279 35.0342C67.0399 35.7934 68 37.2845 68 39C68 40.7788 66.9677 42.3164 65.4697 43.0469L65.4219 45.5H66.749C67.4394 45.5 67.999 46.0597 67.999 46.75C67.999 47.4403 67.4394 48 66.749 48H65.3721L65.293 52.0039H66.749C67.4394 52.0039 67.999 52.5636 67.999 53.2539C67.999 53.9442 67.4394 54.5039 66.749 54.5039H7.25C6.55966 54.5039 6.00001 53.9442 6 53.2539C6 52.5636 6.55965 52.0039 7.25 52.0039H7.4707L7.41797 48H7.25C6.55966 48 6.00001 47.4403 6 46.75C6 46.0597 6.55965 45.5 7.25 45.5H7.38477L7.34668 42.6328C6.22773 41.8142 5.50002 40.4926 5.5 39C5.5 37.5495 6.1864 36.2595 7.25195 35.4365L7 16.2461C7 16.2461 7.39644 14.8669 8.77734 14.3994C6.62061 13.9506 5.00002 12.0399 5 9.75C5 7.12667 7.12667 5 9.75 5C12.3733 5.00003 14.5 7.12669 14.5 9.75C14.5 12.0277 12.8964 13.9297 10.7568 14.3916C14.2442 15.4112 15.8248 21.6899 17.8271 26.5166C19.2223 22.9734 20.6633 19.6917 22.8926 18.9209C20.6786 18.5172 19 16.5805 19 14.25C19 11.6267 21.1267 9.5 23.75 9.5C26.3733 9.50008 28.5 11.6267 28.5 14.25C28.5 16.5124 26.9177 18.4038 24.7998 18.8818C26.7356 19.4645 28.0814 21.9225 29.3066 24.8389C31.1382 20.3037 32.722 15.2116 35.6387 14.3682C33.5516 13.8678 32 11.9905 32 9.75C32 7.12667 34.1267 5 36.75 5C39.3733 5.00003 41.5 7.12669 41.5 9.75C41.5 12.0999 39.7931 14.0495 37.5518 14.4307C40.6881 15.5594 42.2607 21.6757 44.3604 26.4307C45.745 22.9203 47.1812 19.6853 49.3926 18.9209C47.1785 18.5173 45.5 16.5806 45.5 14.25C45.5 11.6267 47.6267 9.5 50.25 9.5C52.8731 9.50023 55 11.6268 55 14.25C55 16.5123 53.4176 18.4037 51.2998 18.8818C53.2152 19.4585 54.5527 21.8711 55.7676 24.7471C57.5986 20.0065 59.3516 14.695 62.8066 14.2754C60.8892 13.6644 59.5 11.87 59.5 9.75C59.5 7.12667 61.6267 5 64.25 5Z" fill="#31D2F7"/>
<path d="M64.25 5L64.25 0.680085H64.25V5ZM69 9.75L73.3199 9.75004V9.75H69ZM64.4648 14.4941L64.2727 10.1785L62.6861 18.4309L64.4648 14.4941ZM65.999 16.2461L70.3181 16.3314L70.331 15.676L70.149 15.0462L65.999 16.2461ZM65.6279 35.0342L61.3089 34.9489L61.2567 37.5886L63.5821 38.8389L65.6279 35.0342ZM68 39L72.3199 39V39H68ZM65.4697 43.0469L63.5763 39.164L61.2021 40.3218L61.1506 42.9626L65.4697 43.0469ZM65.4219 45.5L61.1028 45.4157L61.0169 49.8199H65.4219V45.5ZM67.999 46.75L72.3189 46.75V46.75H67.999ZM65.3721 48V43.6801H61.1367L61.053 47.9147L65.3721 48ZM65.293 52.0039L60.9739 51.9186L60.8869 56.3238H65.293V52.0039ZM67.999 53.2539L72.3189 53.254V53.2539H67.999ZM6 53.2539H1.68009V53.254L6 53.2539ZM7.4707 52.0039V56.3238H11.8479L11.7902 51.947L7.4707 52.0039ZM7.41797 48L11.7375 47.9431L11.6814 43.6801H7.41797V48ZM6 46.75H1.68009V46.75L6 46.75ZM7.38477 45.5V49.8199H11.7624L11.7043 45.4426L7.38477 45.5ZM7.34668 42.6328L11.6662 42.5754L11.6376 40.4194L9.89739 39.1463L7.34668 42.6328ZM5.5 39H1.18009V39L5.5 39ZM7.25195 35.4365L9.89245 38.8555L11.5998 37.5369L11.5715 35.3798L7.25195 35.4365ZM7 16.2461L2.8482 15.0527L2.67209 15.6654L2.68046 16.3028L7 16.2461ZM8.77734 14.3994L10.1625 18.4912L25.1922 13.4032L9.65755 10.1701L8.77734 14.3994ZM5 9.75H0.680085V9.75004L5 9.75ZM9.75 5L9.75004 0.680085H9.75V5ZM14.5 9.75L18.8199 9.75004V9.75H14.5ZM10.7568 14.3916L9.84517 10.169L9.54457 18.5379L10.7568 14.3916ZM17.8271 26.5166L13.837 28.1719L17.9316 38.0423L21.8467 28.0993L17.8271 26.5166ZM22.8926 18.9209L24.3043 23.0036L39.8625 17.6241L23.6675 14.6711L22.8926 18.9209ZM19 14.25H14.6801V14.25L19 14.25ZM23.75 9.5L23.7501 5.18009H23.75V9.5ZM28.5 14.25L32.8199 14.25V14.25H28.5ZM24.7998 18.8818L23.8487 14.6679L7.82624 18.2844L23.5548 23.0184L24.7998 18.8818ZM29.3066 24.8389L25.3239 26.5121L29.3855 36.1796L33.3122 26.4566L29.3066 24.8389ZM35.6387 14.3682L36.8387 18.5181L52.5393 13.9779L36.6459 10.1673L35.6387 14.3682ZM32 9.75H27.6801L27.6801 9.75004L32 9.75ZM36.75 5L36.75 0.680085H36.75V5ZM41.5 9.75L45.8199 9.75004V9.75H41.5ZM37.5518 14.4307L36.8275 10.1719L20.62 12.9283L36.0889 18.4954L37.5518 14.4307ZM44.3604 26.4307L40.4086 28.1757L44.585 37.6338L48.3789 28.0158L44.3604 26.4307ZM49.3926 18.9209L50.8039 23.0038L66.367 17.624L50.1673 14.671L49.3926 18.9209ZM45.5 14.25H41.1801V14.25L45.5 14.25ZM50.25 9.5L50.2504 5.18009H50.25V9.5ZM55 14.25L59.3199 14.25V14.25H55ZM51.2998 18.8818L50.3484 14.668L34.3308 18.2844L50.0544 23.0183L51.2998 18.8818ZM55.7676 24.7471L51.7882 26.4281L55.9468 36.2726L59.7973 26.3036L55.7676 24.7471ZM62.8066 14.2754L63.3275 18.5638L64.1182 10.1594L62.8066 14.2754ZM59.5 9.75H55.1801V9.75004L59.5 9.75ZM64.25 5L64.25 9.31991C64.4875 9.31992 64.6801 9.51256 64.6801 9.75H69H73.3199C73.3199 4.74082 69.2591 0.680136 64.25 0.680085L64.25 5ZM69 9.75L64.6801 9.74996C64.6801 9.97848 64.4991 10.1684 64.2727 10.1785L64.4648 14.4941L64.657 18.8098C69.4777 18.5951 73.3199 14.6241 73.3199 9.75004L69 9.75ZM64.4648 14.4941L62.6861 18.4309C62.2864 18.2502 62.0919 17.9844 62.0297 17.8867C61.9698 17.7928 61.916 17.6775 61.8491 17.446L65.999 16.2461L70.149 15.0462C70.093 14.8527 69.2874 11.9327 66.2436 10.5574L64.4648 14.4941ZM65.999 16.2461L61.68 16.1608L61.3089 34.9489L65.6279 35.0342L69.947 35.1195L70.3181 16.3314L65.999 16.2461ZM65.6279 35.0342L63.5821 38.8389C63.611 38.8545 63.6384 38.8801 63.6566 38.9098C63.6648 38.9233 63.6702 38.9362 63.6737 38.9484C63.6769 38.9597 63.6801 38.9759 63.6801 39H68H72.3199C72.3199 35.6313 70.4298 32.7114 67.6738 31.2294L65.6279 35.0342ZM68 39L63.6801 39C63.6801 39.0249 63.6767 39.0414 63.6733 39.053C63.6696 39.0656 63.6637 39.0791 63.6547 39.0932C63.6347 39.1246 63.6054 39.1498 63.5763 39.164L65.4697 43.0469L67.3632 46.9297C70.2886 45.5032 72.3199 42.4932 72.3199 39L68 39ZM65.4697 43.0469L61.1506 42.9626L61.1028 45.4157L65.4219 45.5L69.741 45.5843L69.7888 43.1311L65.4697 43.0469ZM65.4219 45.5V49.8199H66.749V45.5V41.1801H65.4219V45.5ZM66.749 45.5V49.8199C65.0536 49.8199 63.6791 48.4455 63.6791 46.75H67.999H72.3189C72.3189 43.6738 69.8252 41.1801 66.749 41.1801V45.5ZM67.999 46.75L63.6791 46.75C63.6791 45.0546 65.0535 43.6801 66.749 43.6801V48V52.3199C69.8252 52.3199 72.3189 49.8261 72.3189 46.75L67.999 46.75ZM66.749 48V43.6801H65.3721V48V52.3199H66.749V48ZM65.3721 48L61.053 47.9147L60.9739 51.9186L65.293 52.0039L69.612 52.0892L69.6911 48.0853L65.3721 48ZM65.293 52.0039V56.3238H66.749V52.0039V47.684H65.293V52.0039ZM66.749 52.0039V56.3238C65.0536 56.3238 63.6791 54.9494 63.6791 53.2539H67.999H72.3189C72.3189 50.1777 69.8252 47.684 66.749 47.684V52.0039ZM67.999 53.2539L63.6791 53.2539C63.6791 51.5585 65.0535 50.184 66.749 50.184V54.5039V58.8238C69.8252 58.8238 72.3189 56.33 72.3189 53.254L67.999 53.2539ZM66.749 54.5039V50.184H7.25V54.5039V58.8238H66.749V54.5039ZM7.25 54.5039V50.184C8.94552 50.184 10.3199 51.5585 10.3199 53.2539L6 53.2539L1.68009 53.254C1.68012 56.33 4.17379 58.8238 7.25 58.8238V54.5039ZM6 53.2539H10.3199C10.3199 54.9494 8.94547 56.3238 7.25 56.3238V52.0039V47.684C4.17383 47.684 1.68009 50.1777 1.68009 53.2539H6ZM7.25 52.0039V56.3238H7.4707V52.0039V47.684H7.25V52.0039ZM7.4707 52.0039L11.7902 51.947L11.7375 47.9431L7.41797 48L3.09843 48.0569L3.15116 52.0608L7.4707 52.0039ZM7.41797 48V43.6801H7.25V48V52.3199H7.41797V48ZM7.25 48V43.6801C8.94552 43.6801 10.3199 45.0546 10.3199 46.75L6 46.75L1.68009 46.75C1.68012 49.8261 4.17379 52.3199 7.25 52.3199V48ZM6 46.75H10.3199C10.3199 48.4455 8.94547 49.8199 7.25 49.8199V45.5V41.1801C4.17383 41.1801 1.68009 43.6738 1.68009 46.75H6ZM7.25 45.5V49.8199H7.38477V45.5V41.1801H7.25V45.5ZM7.38477 45.5L11.7043 45.4426L11.6662 42.5754L7.34668 42.6328L3.02715 42.6902L3.06523 45.5574L7.38477 45.5ZM7.34668 42.6328L9.89739 39.1463C9.87005 39.1263 9.84938 39.1011 9.83704 39.0773C9.8272 39.0584 9.81992 39.0363 9.81991 39L5.5 39L1.18009 39C1.18011 41.9321 2.61572 44.5242 4.79597 46.1193L7.34668 42.6328ZM5.5 39H9.81991C9.81991 38.9634 9.82718 38.9409 9.83655 38.9222C9.84814 38.8992 9.86727 38.875 9.89245 38.8555L7.25195 35.4365L4.61146 32.0175C2.5327 33.623 1.18009 36.1542 1.18009 39H5.5ZM7.25195 35.4365L11.5715 35.3798L11.3195 16.1894L7 16.2461L2.68046 16.3028L2.93241 35.4932L7.25195 35.4365ZM7 16.2461C11.1518 17.4395 11.1513 17.4412 11.1508 17.4429C11.1507 17.4434 11.1502 17.4451 11.1499 17.4462C11.1492 17.4484 11.1486 17.4507 11.1479 17.4528C11.1467 17.4572 11.1454 17.4616 11.1441 17.4658C11.1416 17.4744 11.1391 17.4827 11.1367 17.4908C11.1318 17.507 11.1271 17.5223 11.1225 17.5367C11.1133 17.5657 11.1046 17.5915 11.0965 17.6147C11.0804 17.6607 11.0656 17.6983 11.0521 17.7298C11.027 17.7881 10.9968 17.8476 10.9533 17.9121C10.8719 18.0329 10.6267 18.3341 10.1625 18.4912L8.77734 14.3994L7.39214 10.3076C5.5471 10.9322 4.41319 12.1568 3.78838 13.084C3.47316 13.5518 3.25751 13.9853 3.11498 14.3167C3.04265 14.4849 2.98612 14.6339 2.94294 14.7571C2.92128 14.8189 2.90275 14.8749 2.8871 14.9242C2.87927 14.9489 2.87213 14.972 2.86566 14.9935C2.86243 15.0042 2.85936 15.0145 2.85645 15.0243C2.855 15.0293 2.85358 15.0341 2.85221 15.0388C2.85152 15.0412 2.85084 15.0435 2.85017 15.0458C2.84984 15.047 2.84934 15.0487 2.84918 15.0493C2.84869 15.051 2.8482 15.0527 7 16.2461ZM8.77734 14.3994L9.65755 10.1701C9.46278 10.1296 9.31992 9.95106 9.31991 9.74996L5 9.75L0.680085 9.75004C0.68013 14.1288 3.77845 17.7715 7.89714 18.6287L8.77734 14.3994ZM5 9.75H9.31991C9.31991 9.5125 9.5125 9.31991 9.75 9.31991V5V0.680085C4.74085 0.680085 0.680085 4.74085 0.680085 9.75H5ZM9.75 5L9.74996 9.31991C9.98751 9.31992 10.1801 9.51256 10.1801 9.75H14.5H18.8199C18.8199 4.74082 14.7591 0.680136 9.75004 0.680085L9.75 5ZM14.5 9.75L10.1801 9.74996C10.1801 9.94895 10.0396 10.127 9.84517 10.169L10.7568 14.3916L11.6685 18.6142C15.7531 17.7323 18.8199 14.1065 18.8199 9.75004L14.5 9.75ZM10.7568 14.3916L9.54457 18.5379C9.32266 18.4731 9.39723 18.3989 9.72657 18.7958C10.0636 19.2021 10.4693 19.8643 10.9394 20.8642C11.4016 21.8476 11.8448 22.9781 12.3264 24.2543C12.7874 25.4762 13.301 26.88 13.837 28.1719L17.8271 26.5166L21.8173 24.8613C21.3521 23.7398 20.9173 22.5488 20.4098 21.2041C19.9229 19.9137 19.3775 18.5058 18.7584 17.1887C18.1471 15.8882 17.3786 14.4878 16.3759 13.2792C15.3655 12.0613 13.9347 10.82 11.9691 10.2453L10.7568 14.3916ZM17.8271 26.5166L21.8467 28.0993C22.5513 26.3098 23.1461 24.9136 23.7544 23.8967C24.4199 22.7841 24.6668 22.8783 24.3043 23.0036L22.8926 18.9209L21.4809 14.8382C18.8891 15.7343 17.3009 17.8548 16.3398 19.4615C15.3214 21.164 14.4981 23.1803 13.8076 24.9339L17.8271 26.5166ZM22.8926 18.9209L23.6675 14.6711C23.4675 14.6346 23.3199 14.4541 23.3199 14.25L19 14.25L14.6801 14.25C14.6801 18.7069 17.8897 22.3998 22.1176 23.1707L22.8926 18.9209ZM19 14.25H23.3199C23.3199 14.0125 23.5125 13.8199 23.75 13.8199V9.5V5.18009C18.7409 5.18009 14.6801 9.24085 14.6801 14.25H19ZM23.75 9.5L23.7499 13.8199C23.9875 13.8199 24.1801 14.0127 24.1801 14.25H28.5H32.8199C32.8199 9.24077 28.759 5.18024 23.7501 5.18009L23.75 9.5ZM28.5 14.25L24.1801 14.25C24.1801 14.4469 24.0421 14.6243 23.8487 14.6679L24.7998 18.8818L25.7509 23.0957C29.7933 22.1833 32.8199 18.5779 32.8199 14.25L28.5 14.25ZM24.7998 18.8818L23.5548 23.0184C23.1715 22.9031 23.2839 22.7482 23.7732 23.4518C24.237 24.1187 24.7391 25.12 25.3239 26.5121L29.3066 24.8389L33.2893 23.1656C32.649 21.6413 31.8655 19.9554 30.8662 18.5186C29.8923 17.1184 28.3639 15.4432 26.0448 14.7452L24.7998 18.8818ZM29.3066 24.8389L33.3122 26.4566C34.3352 23.9236 35.0397 21.9008 35.9162 20.1776C36.8928 18.2576 37.3046 18.3833 36.8387 18.5181L35.6387 14.3682L34.4386 10.2183C31.0561 11.1964 29.2176 14.29 28.2153 16.2606C27.1128 18.4281 26.1097 21.219 25.3011 23.2212L29.3066 24.8389ZM35.6387 14.3682L36.6459 10.1673C36.4555 10.1217 36.3199 9.94575 36.3199 9.74996L32 9.75L27.6801 9.75004C27.6801 14.0353 30.6476 17.6139 34.6315 18.569L35.6387 14.3682ZM32 9.75H36.3199C36.3199 9.5125 36.5125 9.31991 36.75 9.31991V5V0.680085C31.7409 0.680085 27.6801 4.74085 27.6801 9.75H32ZM36.75 5L36.75 9.31991C36.9875 9.31992 37.1801 9.51256 37.1801 9.75H41.5H45.8199C45.8199 4.74082 41.7591 0.680136 36.75 0.680085L36.75 5ZM41.5 9.75L37.1801 9.74996C37.1801 9.95583 37.0297 10.1375 36.8275 10.1719L37.5518 14.4307L38.2761 18.6894C42.5565 17.9614 45.8199 14.244 45.8199 9.75004L41.5 9.75ZM37.5518 14.4307L36.0889 18.4954C35.8086 18.3945 35.8764 18.3018 36.2214 18.7496C36.5583 19.187 36.9571 19.8751 37.4241 20.8847C37.8845 21.8797 38.331 23.007 38.8275 24.2792C39.3064 25.506 39.8369 26.881 40.4086 28.1757L44.3604 26.4307L48.3121 24.6856C47.834 23.6028 47.3805 22.4302 46.876 21.1376C46.3892 19.8904 45.8528 18.5265 45.2655 17.257C44.6849 16.002 43.9713 14.6523 43.0656 13.4767C42.1681 12.3117 40.8631 11.0312 39.0146 10.366L37.5518 14.4307ZM44.3604 26.4307L48.3789 28.0158C49.0763 26.2478 49.6666 24.8723 50.2675 23.8741C50.924 22.7835 51.1652 22.8789 50.8039 23.0038L49.3926 18.9209L47.9812 14.838C45.4085 15.7274 43.826 17.8225 42.8654 19.418C41.8492 21.106 41.029 23.1032 40.3418 24.8455L44.3604 26.4307ZM49.3926 18.9209L50.1673 14.671C49.9676 14.6346 49.8199 14.4544 49.8199 14.25L45.5 14.25L41.1801 14.25C41.1801 18.7068 44.3894 22.4 48.6179 23.1708L49.3926 18.9209ZM45.5 14.25H49.8199C49.8199 14.0125 50.0125 13.8199 50.25 13.8199V9.5V5.18009C45.2409 5.18009 41.1801 9.24085 41.1801 14.25H45.5ZM50.25 9.5L50.2496 13.8199C50.4876 13.8199 50.6801 14.013 50.6801 14.25H55H59.3199C59.3199 9.24062 55.2587 5.18053 50.2504 5.18009L50.25 9.5ZM55 14.25L50.6801 14.25C50.6801 14.4466 50.5422 14.6242 50.3484 14.668L51.2998 18.8818L52.2512 23.0957C56.293 22.1831 59.3199 18.578 59.3199 14.25L55 14.25ZM51.2998 18.8818L50.0544 23.0183C49.6741 22.9038 49.7806 22.7498 50.2595 23.4326C50.7146 24.0816 51.2104 25.0605 51.7882 26.4281L55.7676 24.7471L59.747 23.066C59.1098 21.5577 58.3294 19.8923 57.3332 18.4718C56.3607 17.0852 54.8409 15.4365 52.5452 14.7453L51.2998 18.8818ZM55.7676 24.7471L59.7973 26.3036C60.7906 23.7321 61.543 21.6249 62.452 19.9931C63.4474 18.2063 63.8207 18.5039 63.3275 18.5638L62.8066 14.2754L62.2858 9.98699C58.3376 10.4665 56.1069 13.6296 54.9042 15.7886C53.6152 18.1026 52.5756 21.0215 51.7378 23.1906L55.7676 24.7471ZM62.8066 14.2754L64.1182 10.1594C63.9388 10.1022 63.8199 9.93357 63.8199 9.74996L59.5 9.75L55.1801 9.75004C55.1801 13.8063 57.8396 17.2266 61.495 18.3914L62.8066 14.2754ZM59.5 9.75H63.8199C63.8199 9.5125 64.0125 9.31991 64.25 9.31991V5V0.680085C59.2409 0.680085 55.1801 4.74085 55.1801 9.75H59.5Z" fill="#E6FD88" mask="url(#path-1-outside-1_4075_2975)"/>
<circle cx="9.99995" cy="39" r="4.49995" fill="#F03A17"/>
<circle cx="63.5" cy="39" r="4.49995" fill="#F03A17"/>
<path d="M50.4065 18.7489C44.1807 18.7489 43.6324 36.7487 36.9066 36.7487C30.6567 36.7487 47.6565 41.2497 40.9066 41.2497C38.731 41.2497 43.6566 44.9996 43.6566 44.9996H57.9067C57.9067 44.9996 63.8323 42.2495 61.6567 42.2497C54.9067 42.2501 69.9063 36.7487 63.9063 36.7487C57.1806 36.7487 56.6323 18.7489 50.4065 18.7489Z" fill="#D48C00"/>
<path d="M54.9995 14.25C54.9995 16.8733 52.8729 18.9999 50.2496 18.9999C47.6262 18.9999 45.4996 16.8733 45.4996 14.25C45.4996 11.6266 47.6262 9.5 50.2496 9.5C52.8729 9.5 54.9995 11.6266 54.9995 14.25Z" fill="#D48C00"/>
<path d="M23.9068 18.7489C17.681 18.7489 17.1327 36.7487 10.4069 36.7487C4.15697 36.7487 21.1568 41.2497 14.4069 41.2497C12.2313 41.2497 17.1568 44.9996 17.1568 44.9996H31.407C31.407 44.9996 37.3326 42.2495 35.157 42.2497C28.407 42.2501 43.4066 36.7487 37.4066 36.7487C30.6809 36.7487 30.1325 18.7489 23.9068 18.7489Z" fill="#D48C00"/>
<path d="M28.4998 14.25C28.4998 16.8733 26.3732 18.9999 23.7498 18.9999C21.1265 18.9999 18.9999 16.8733 18.9999 14.25C18.9999 11.6266 21.1265 9.5 23.7498 9.5C26.3732 9.5 28.4998 11.6266 28.4998 14.25Z" fill="#D48C00"/>
<path d="M64.25 5C66.8733 5.00003 69 7.12669 69 9.75C69 12.3013 66.9884 14.3818 64.4648 14.4941C65.6447 15.0273 65.9958 16.2349 65.999 16.2461L65.249 54.2471H7.5L7 16.2461C7 16.2461 7.39644 14.8669 8.77734 14.3994C6.62061 13.9506 5.00002 12.0399 5 9.75C5 7.12667 7.12667 5 9.75 5C12.3733 5.00003 14.5 7.12669 14.5 9.75C14.5 12.0277 12.8964 13.9297 10.7568 14.3916C16.5416 16.0829 17.077 32.2461 23 32.2461C29.4017 32.2458 30.2071 15.9388 35.6387 14.3682C33.5516 13.8678 32 11.9905 32 9.75C32 7.12667 34.1267 5 36.75 5C39.3733 5.00003 41.5 7.12669 41.5 9.75C41.5 12.0999 39.7931 14.0495 37.5518 14.4307C42.812 16.3237 43.674 32.2461 50 32.2461C55.8655 32.2452 56.4749 15.0444 62.8066 14.2754C60.8892 13.6644 59.5 11.87 59.5 9.75C59.5 7.12667 61.6267 5 64.25 5Z" fill="#FFC83D"/>
<rect x="6" y="45.5" width="61.9994" height="2.49997" rx="1.24999" fill="#EBA300"/>
<rect x="6" y="52.0039" width="61.9994" height="2.49997" rx="1.24999" fill="#EBA300"/>
<circle cx="37.2499" cy="37.7499" r="5.74994" fill="#0099BC"/>
<circle cx="36" cy="35.5" r="2.49997" fill="#00BCF2"/>
<circle cx="55" cy="39" r="4.49995" fill="#B4009E"/>
<circle cx="54" cy="37.5" r="1.49998" fill="#CC76CA"/>
<circle cx="19.5" cy="39" r="4.49995" fill="#B4009E"/>
<circle cx="18.5" cy="37.5" r="1.49998" fill="#CC76CA"/>
</svg>
