<svg width="823" height="349" viewBox="0 0 823 349" fill="none" xmlns="http://www.w3.org/2000/svg">
<path d="M552.218 273.979C574.408 273.98 582.087 293.044 582.087 311.673V316.512H543.546C543.546 322.768 544.829 333.437 553.93 333.438C559.475 333.438 564.165 329.45 565.592 323.619L581.09 329.31C578.992 335.16 575.096 340.196 569.961 343.696C564.826 347.196 558.715 348.981 552.503 348.795C530.458 348.795 520.505 331.023 520.505 311.247C520.505 291.046 531.024 273.979 552.218 273.979ZM180.128 273.979C193.923 273.98 208.289 279.955 208.289 295.739V335.571C208.289 343.681 209.571 346.095 210.428 347.092H186.674C186.248 345.103 186.248 342.684 185.963 340.55C181.84 345.388 175.724 348.8 168.611 348.8C156.234 348.8 148.129 340.835 148.129 326.896C148.129 307.691 169.749 302.146 185.252 301.72L185.247 296.881C185.247 292.618 183.399 288.49 179.276 288.49C174.012 288.49 172.163 293.896 171.737 297.878L151.681 293.755C154.24 279.67 167.044 273.979 180.128 273.979ZM368.229 273.979C382.029 273.98 396.396 279.955 396.396 295.739V335.571C396.396 343.681 397.673 346.095 398.529 347.092H374.775C374.35 345.103 374.35 342.684 374.064 340.55C369.942 345.388 363.826 348.8 356.713 348.8C344.336 348.8 336.231 340.836 336.23 326.896C336.23 307.691 357.85 302.146 373.354 301.72L373.349 296.881C373.349 292.618 371.5 288.491 367.378 288.49C362.113 288.49 360.265 293.896 359.839 297.878L339.782 293.755C342.342 279.67 355.146 273.979 368.229 273.979ZM652.616 273.979C674.085 273.98 684.76 289.768 684.76 311.106C684.76 333.301 674.516 348.8 652.616 348.8C630.707 348.8 620.463 333.297 620.463 311.106C620.463 289.768 631.137 273.979 652.616 273.979ZM792.106 273.979C805.911 273.979 820.277 279.955 820.277 295.739V335.571C820.277 343.68 821.555 346.095 822.406 347.092H798.653C798.228 345.103 798.228 342.684 797.942 340.55C793.82 345.388 787.708 348.8 780.596 348.8C768.219 348.8 760.113 340.836 760.113 326.896C760.113 307.691 781.732 302.146 797.24 301.72H797.23V296.881C797.23 292.618 795.378 288.49 791.255 288.49C785.991 288.49 784.147 293.896 783.717 297.878L763.665 293.755C766.225 279.67 779.018 273.98 792.106 273.979ZM487.224 273.979C511.683 273.979 515.385 295.173 515.385 302.286L495.75 302.281C495.75 299.441 495.614 296.02 494.617 293.32C493.475 290.48 491.627 288.486 487.926 288.486C480.252 288.486 479.399 297.873 479.399 312.099C479.399 328.173 481.96 333.437 487.926 333.438C496.035 333.438 496.747 325.187 496.747 319.782L514.669 322.342C512.961 339.693 503.008 348.795 486.228 348.795C465.465 348.795 454.65 330.592 454.65 312.955C454.65 293.465 465.464 273.98 487.224 273.979ZM61.0156 245.818V265.449H25.6016V285.931H50.7773V305.557H25.6016V347.092H0V245.818H61.0156ZM90.4502 275.688V347.092H67.4082V275.688H90.4502ZM147.184 297.307C144.053 296.17 141.068 295.313 137.797 295.313C130.113 295.314 127.698 297.307 125.139 300.863V347.092H102.093V275.688H124.708V286.497H124.994C127.839 277.536 138.082 273.98 147.184 273.979V297.307ZM301.683 245.813C320.176 245.814 331.411 256.052 331.411 269.992C331.411 282.51 322.88 291.616 312.352 293.891V294.176C325.576 297.451 333.26 305.843 333.26 319.212C333.26 336.278 320.17 347.092 300.114 347.092H259.01L259.015 245.813H301.683ZM453.709 297.307C450.574 296.17 447.593 295.313 444.322 295.313C436.634 295.314 434.224 297.307 431.664 300.863V347.092H408.618V275.688H431.233V286.497H431.52C434.36 277.536 444.608 273.98 453.709 273.979V297.307ZM612.803 245.818V347.092H589.761V245.818H612.803ZM736.636 273.979C745.878 273.979 751.854 280.241 751.854 290.054V347.092H728.812V296.596C728.812 292.759 727.52 290.194 723.262 290.194C720.843 290.194 718.849 291.191 717.286 293.185L716.009 294.893V347.092H692.967L692.963 275.688H716.004V285.215H716.29C721.129 277.967 728.381 273.98 736.636 273.979ZM652.616 288.49C646.07 288.49 644.361 294.607 644.361 311.106C644.361 329.169 646.921 334.294 652.616 334.294C658.302 334.294 660.861 329.169 660.861 311.106C660.861 294.607 659.148 288.49 652.616 288.49ZM185.247 312.814C176.431 313.666 171.166 315.234 171.166 325.758C171.166 330.737 173.731 333.441 177.854 333.441C179.847 333.441 182.407 332.155 185.252 328.889L185.247 312.814ZM373.349 312.814C364.533 313.666 359.268 315.234 359.268 325.758C359.268 330.737 361.832 333.441 365.955 333.441C367.949 333.441 370.508 332.155 373.354 328.889L373.349 312.814ZM797.24 312.814C788.419 313.666 783.155 315.234 783.155 325.758C783.155 330.737 785.715 333.441 789.837 333.441C791.83 333.441 794.39 332.155 797.24 328.889V312.814ZM284.611 303.002V328.317H293.998C299.543 328.317 306.797 325.903 306.797 315.52C306.797 307.976 302.248 303.002 293.998 303.002H284.611ZM552.067 288.49C545.535 288.491 543.542 296.17 543.542 302.856H560.748C560.603 296.174 560.036 288.49 552.067 288.49ZM284.611 263.741V285.931H293.002C302.248 285.931 305.805 280.947 305.805 274.977C305.805 265.304 299.403 263.741 293.572 263.741H284.611ZM90.4502 245.818V266.301H67.4082V245.818H90.4502ZM325.484 157.521L326.111 196.899H317.137L206.031 105.008H267.688L325.484 157.521ZM501.865 196.899H492.871L493.522 157.521L551.309 105.008H612.966L501.865 196.899ZM361.438 144.399C361.438 144.399 360.807 151.269 358.884 152.519C356.942 153.773 358.224 175.649 358.224 175.649L339.604 176.276V162.528L240.703 52.499H315.847L361.438 144.399ZM578.292 52.499L479.381 162.528V176.276L460.767 175.649C460.767 175.64 462.053 153.773 460.106 152.519C458.188 151.269 457.547 144.399 457.547 144.399L503.144 52.499H578.292ZM405.103 131.265L396.76 139.393C396.76 139.393 392.909 146.894 394.2 154.396C395.477 161.872 394.841 168.109 394.836 168.157L374.293 173.15V150.024L312 0H398.697L405.103 131.265ZM506.99 0L444.697 150.024V173.15L424.149 168.157C424.145 168.11 423.531 161.872 424.79 154.396C426.068 146.894 422.23 139.393 422.23 139.393L413.868 131.265L420.303 0H506.99Z" fill="white"/>
</svg>
