<svg xmlns="http://www.w3.org/2000/svg" width="57" height="75" fill="none"><mask id="a" width="58" height="75" x="-.508" y="0" fill="#000" maskUnits="userSpaceOnUse"><path fill="#fff" d="M-.508 0h58v75h-58z"/><path d="M23.43 5.036c19.63-1.012 20.491 19.48 18.468 29.852 3.44-4.453 7.841-4.89 9.612-4.3-1.518 6.577.735 15.432-1.012 22.768-1.265 5.313-5.313 9.613-9.866 12.902-5.565 4.02-17.201 6.071-26.816-.506C3.25 58.523.351 37.96 12.045 27.805 21.658 19.456 23.683 9.42 23.43 5.036ZM9.29 17.68c-.336-2.894.6-8.602 7.024-8.29.015 3.417-1.37 9.858-7.025 8.29Z"/></mask><path fill="#31D2F7" d="M23.43 5.036c19.63-1.012 20.491 19.48 18.468 29.852 3.44-4.453 7.841-4.89 9.612-4.3-1.518 6.577.735 15.432-1.012 22.768-1.265 5.313-5.313 9.613-9.866 12.902-5.565 4.02-17.201 6.071-26.816-.506C3.25 58.523.351 37.96 12.045 27.805 21.658 19.456 23.683 9.42 23.43 5.036ZM9.29 17.68c-.336-2.894.6-8.602 7.024-8.29.015 3.417-1.37 9.858-7.025 8.29Z"/><path fill="#E6FD88" d="M23.43 5.036 23.207.722l-4.34.224.25 4.339 4.313-.249Zm18.468 29.852-4.24-.828 7.658 3.47-3.419-2.642Zm9.612-4.3 4.21.971.882-3.827-3.726-1.242-1.366 4.098Zm-1.012 22.768 4.203 1.001-4.203-1Zm-9.866 12.902 2.53 3.502-2.53-3.502Zm-26.816-.506-2.439 3.565 2.44-3.565Zm-1.771-37.947 2.832 3.261-2.832-3.261ZM9.289 17.68l-4.291.497.334 2.888 2.802.777L9.29 17.68Zm7.025-8.29 4.32-.019-.017-4.097-4.093-.2-.21 4.316Zm7.116-4.354.222 4.314c4.126-.212 6.879.71 8.774 2.02 1.926 1.33 3.347 3.323 4.325 5.871 2.017 5.252 1.834 12.065.907 16.82l4.24.827 4.24.827c1.096-5.618 1.495-14.237-1.321-21.57-1.438-3.745-3.787-7.333-7.48-9.884-3.724-2.573-8.44-3.832-14.13-3.54l.223 4.315Zm18.468 29.852 3.418 2.641c1.197-1.549 2.448-2.269 3.397-2.59 1.082-.365 1.636-.184 1.43-.253l1.367-4.098 1.366-4.098c-3.713-1.238-9.968.025-14.397 5.756l3.419 2.642Zm9.612-4.3-4.21-.971c-.917 3.975-.674 8.488-.527 12.24.16 4.05.236 7.502-.477 10.499l4.202 1 4.203 1.001c1.033-4.34.857-8.982.705-12.839-.163-4.154-.288-7.356.313-9.959l-4.21-.971Zm-1.012 22.768-4.202-1c-.912 3.83-3.974 7.352-8.194 10.4l2.53 3.502 2.53 3.502c4.886-3.53 9.92-8.608 11.538-15.403l-4.202-1Zm-9.866 12.902-2.53-3.502c-4.247 3.068-13.892 4.872-21.846-.57l-2.44 3.566-2.439 3.565c11.275 7.714 24.901 5.414 31.784.443l-2.53-3.502Zm-26.816-.506 2.44-3.565c-3.931-2.69-6.857-8.268-7.367-14.655-.503-6.305 1.422-12.5 5.988-16.466l-2.832-3.261-2.833-3.262c-7.127 6.19-9.6 15.354-8.935 23.676.658 8.241 4.465 16.559 11.1 21.098l2.44-3.565Zm-1.771-37.947 2.832 3.261c10.677-9.271 13.191-20.628 12.865-26.279l-4.312.25-4.313.248c.18 3.12-1.355 11.833-9.905 19.258l2.833 3.262ZM9.289 17.68l4.291-.497c-.1-.87.043-2.013.442-2.715.16-.28.323-.43.502-.527.18-.098.632-.283 1.58-.237l.21-4.314.21-4.315c-2.263-.11-4.338.302-6.13 1.277-1.792.975-3.047 2.376-3.882 3.845-1.591 2.798-1.749 5.955-1.514 7.98l4.291-.497Zm7.025-8.29-4.32.018c.003.58-.056 1.327-.209 2.076-.156.765-.377 1.373-.609 1.779-.227.399-.347.405-.246.357.166-.078.107.062-.486-.103L9.289 17.68l-1.155 4.162c2.234.62 4.47.543 6.485-.409 1.951-.921 3.237-2.444 4.06-3.887 1.576-2.759 1.964-6.078 1.955-8.175l-4.32.019Z" mask="url(#a)"/><path fill="#F7630C" d="M23.43 5.036c19.63-1.012 20.491 19.48 18.468 29.852 3.44-4.453 7.841-4.89 9.612-4.3-1.518 6.577.735 15.432-1.012 22.768-1.265 5.313-5.313 9.613-9.866 12.902-5.565 4.02-17.201 6.071-26.816-.506C3.25 58.523.351 37.96 12.045 27.805 21.658 19.456 23.683 9.42 23.43 5.036ZM9.29 17.68c-.336-2.894.6-8.602 7.024-8.29.015 3.417-1.37 9.858-7.025 8.29Z"/><path fill="#FCE100" d="M21.157 41.715c11.131-.405 13.914 9.276 13.914 14.167 2.429-2.226 6.072-2.615 7.59-2.53-1.084 2.53-1.038 8.476-.836 12.002-.393.306-.79.609-1.193.9-5.51 3.98-16.972 6.029-26.53-.317-1.05-3.267-.975-12.792 3.766-15.874 4.048-2.632 3.88-6.662 3.29-8.348Z"/><path fill="#fff" d="M28.233 58.414c-1.012 2.429-.421 5.735 0 7.084 1.417-2.024 5.313-2.699 7.084-2.783-.835 1.17-.578 4.144-.226 6.19-4.054 1.243-9.067 1.577-14.065.198-.91-8.521 4.359-10.689 7.207-10.689Z"/></svg>