<svg viewBox="0 0 251 56.8311" xmlns="http://www.w3.org/2000/svg" xmlns:xlink="http://www.w3.org/1999/xlink" width="251.000000" height="56.831055" fill="none" customFrame="#000000">
	<path id="Vector" d="M222.069 53.1945C221.601 53.5408 221.02 53.8056 220.328 53.9889C219.656 54.1518 218.943 54.2333 218.189 54.2333C216.234 54.2333 214.716 53.7343 213.636 52.7362C212.577 51.7381 212.048 50.2715 212.048 48.3364L212.048 41.584L209.512 41.584L209.512 37.9176L212.048 37.9176L212.048 33.915L216.814 33.915L216.814 37.9176L220.908 37.9176L220.908 41.584L216.814 41.584L216.814 48.2753C216.814 48.9679 216.987 49.5077 217.333 49.8947C217.7 50.2613 218.209 50.4447 218.861 50.4447C219.615 50.4447 220.256 50.241 220.786 49.8336L222.069 53.1945Z" fill="rgb(255,255,255)" fill-rule="nonzero" />
	<path id="Vector" d="M201.868 37.5503L206.634 37.5503L206.634 53.9882L201.868 53.9882L201.868 37.5503ZM204.251 35.2587C203.375 35.2587 202.662 35.0041 202.112 34.4949C201.562 33.9857 201.287 33.3542 201.287 32.6006C201.287 31.8469 201.562 31.2155 202.112 30.7062C202.662 30.197 203.375 29.9424 204.251 29.9424C205.127 29.9424 205.84 30.1868 206.39 30.6757C206.94 31.1645 207.215 31.7756 207.215 32.5089C207.215 33.3033 206.94 33.9653 206.39 34.4949C205.84 35.0041 205.127 35.2587 204.251 35.2587Z" fill="rgb(255,255,255)" fill-rule="nonzero" />
	<path id="Vector" d="M190.468 37.3066C192.525 37.3066 194.154 37.9177 195.356 39.1399C196.578 40.3417 197.189 42.1545 197.189 44.5784L197.189 53.989L192.423 53.989L192.423 45.3117C192.423 44.0081 192.148 43.0406 191.598 42.4091C191.068 41.7573 190.305 41.4314 189.307 41.4314C188.186 41.4314 187.3 41.798 186.648 42.5313C185.997 43.2443 185.671 44.3136 185.671 45.7395L185.671 53.989L180.904 53.989L180.904 45.3117C180.904 42.7248 179.865 41.4314 177.788 41.4314C176.688 41.4314 175.812 41.798 175.16 42.5313C174.508 43.2443 174.182 44.3136 174.182 45.7395L174.182 53.989L169.416 53.989L169.416 37.5511L173.969 37.5511L173.969 39.4454C174.58 38.7528 175.323 38.2233 176.199 37.8566C177.095 37.49 178.073 37.3066 179.132 37.3066C180.293 37.3066 181.342 37.5409 182.279 38.0094C183.216 38.4575 183.97 39.1195 184.54 39.9954C185.212 39.1399 186.058 38.4779 187.076 38.0094C188.115 37.5409 189.245 37.3066 190.468 37.3066Z" fill="rgb(255,255,255)" fill-rule="nonzero" />
	<path id="Vector" d="M158.222 37.3066C160.279 37.3066 161.908 37.9177 163.11 39.1399C164.332 40.3417 164.943 42.1545 164.943 44.5784L164.943 53.989L160.177 53.989L160.177 45.3117C160.177 44.0081 159.902 43.0406 159.352 42.4091C158.822 41.7573 158.059 41.4314 157.06 41.4314C155.94 41.4314 155.054 41.798 154.402 42.5313C153.75 43.2443 153.425 44.3136 153.425 45.7395L153.425 53.989L148.658 53.989L148.658 45.3117C148.658 42.7248 147.619 41.4314 145.542 41.4314C144.442 41.4314 143.566 41.798 142.914 42.5313C142.262 43.2443 141.936 44.3136 141.936 45.7395L141.936 53.989L137.17 53.989L137.17 37.5511L141.722 37.5511L141.722 39.4454C142.334 38.7528 143.077 38.2233 143.953 37.8566C144.849 37.49 145.827 37.3066 146.886 37.3066C148.047 37.3066 149.096 37.5409 150.033 38.0094C150.97 38.4575 151.724 39.1195 152.294 39.9954C152.966 39.1399 153.812 38.4779 154.83 38.0094C155.869 37.5409 156.999 37.3066 158.222 37.3066Z" fill="rgb(255,255,255)" fill-rule="nonzero" />
	<path id="Vector" d="M132.345 37.5518L132.345 53.9897L127.823 53.9897L127.823 52.0343C127.192 52.7472 126.438 53.2972 125.562 53.6842C124.686 54.0508 123.739 54.2341 122.721 54.2341C120.562 54.2341 118.851 53.6129 117.588 52.3704C116.325 51.1278 115.693 49.2844 115.693 46.8401L115.693 37.5518L120.46 37.5518L120.46 46.1374C120.46 48.7854 121.57 50.1094 123.79 50.1094C124.931 50.1094 125.847 49.7427 126.54 49.0094C127.233 48.2558 127.579 47.1457 127.579 45.6791L127.579 37.5518L132.345 37.5518Z" fill="rgb(255,255,255)" fill-rule="nonzero" />
	<path id="Vector" d="M103.052 54.3553C101.361 54.3553 99.7212 54.1313 98.1324 53.6832C96.564 53.2147 95.3011 52.6138 94.3438 51.8805L96.0242 48.1529C96.9408 48.8251 98.0306 49.3649 99.2935 49.7723C100.556 50.1796 101.819 50.3833 103.082 50.3833C104.488 50.3833 105.526 50.1796 106.199 49.7723C106.871 49.3445 107.207 48.7844 107.207 48.0918C107.207 47.5826 107.003 47.165 106.596 46.8391C106.209 46.4928 105.7 46.2178 105.068 46.0141C104.457 45.8105 103.622 45.5864 102.563 45.342C100.933 44.9549 99.599 44.5679 98.5602 44.1809C97.5213 43.7939 96.6251 43.1726 95.8714 42.3171C95.1381 41.4616 94.7715 40.3209 94.7715 38.8951C94.7715 37.6526 95.1076 36.5323 95.7798 35.5342C96.452 34.5157 97.4602 33.7111 98.8046 33.1204C100.169 32.5297 101.829 32.2344 103.785 32.2344C105.15 32.2344 106.484 32.3973 107.787 32.7232C109.091 33.0491 110.232 33.5176 111.209 34.1287L109.682 37.8868C107.706 36.7665 105.73 36.2064 103.754 36.2064C102.369 36.2064 101.341 36.4304 100.668 36.8786C100.017 37.3267 99.6907 37.9174 99.6907 38.6507C99.6907 39.384 100.067 39.9339 100.821 40.3006C101.595 40.6469 102.766 40.9931 104.335 41.3394C105.964 41.7264 107.299 42.1134 108.337 42.5005C109.376 42.8875 110.262 43.4985 110.996 44.3337C111.749 45.1688 112.126 46.2993 112.126 47.7252C112.126 48.9473 111.78 50.0676 111.087 51.0861C110.415 52.0842 109.397 52.8786 108.032 53.4693C106.667 54.06 105.007 54.3553 103.052 54.3553Z" fill="rgb(255,255,255)" fill-rule="nonzero" />
	<path id="Vector" d="M76.5823 36.6347L69.7383 36.6347L69.7383 32.6016L88.3761 32.6016L88.3761 36.6347L81.5321 36.6347L81.5321 53.9892L76.5823 53.9892L76.5823 36.6347Z" fill="rgb(255,255,255)" fill-rule="nonzero" />
	<path id="Vector" d="M61.5137 32.6016L66.4634 32.6016L66.4634 53.9892L61.5137 53.9892L61.5137 32.6016Z" fill="rgb(255,255,255)" fill-rule="nonzero" />
	<path id="Ellipse 238" d="M29.8246 53.3222C29.8246 55.2601 26.0719 56.831 21.4426 56.831C16.8133 56.831 13.0605 55.2601 13.0605 53.3222C13.0605 51.3844 16.8133 49.8135 21.4426 49.8135C21.7055 49.8135 21.9656 49.8185 22.2223 49.8285C22.5195 49.8399 20.251 53.2663 21.108 53.2663C22.5338 54.4884 29.663 52.6332 29.663 52.6332C29.769 52.856 29.8246 53.0864 29.8246 53.3222Z" fill="rgb(255,255,255)" fill-opacity="0.400000006" fill-rule="nonzero" />
	<path id="Union" d="M21.2519 2.44434C9.51481 2.44434 0 11.9554 0 23.6879C0 34.4987 8.07865 43.4234 18.5306 44.7589C23.1867 45.7264 21.9274 50.5859 20.6887 52.832C20.5809 53.0273 20.9081 53.4394 21.1113 53.3474C37.3669 45.9923 41.6108 33.8848 42.3673 26.1097C42.4575 25.3149 42.5039 24.5068 42.5039 23.6879C42.5039 11.9554 32.9891 2.44434 21.2519 2.44434ZM21.2531 15.8916C25.5586 15.8916 29.0489 19.3819 29.0489 23.6874C29.0489 27.9929 25.5586 31.4832 21.2531 31.4832L21.247 31.4832C16.9415 31.4832 13.4512 27.9929 13.4512 23.6874C13.4512 19.3819 16.9415 15.8916 21.247 15.8916L21.2531 15.8916Z" fill="rgb(255,255,255)" fill-rule="evenodd" />
	<path id="Vector" d="M244.186 7.36328C246.223 7.36328 247.863 7.97436 249.106 9.19651C250.368 10.4187 251 12.2315 251 14.6351L251 24.0457L246.234 24.0457L246.234 15.3684C246.234 14.0648 245.948 13.0972 245.378 12.4658C244.808 11.814 243.983 11.488 242.903 11.488C241.701 11.488 240.744 11.8649 240.031 12.6185C239.318 13.3518 238.962 14.4518 238.962 15.9184L238.962 24.0457L234.195 24.0457L234.195 7.60771L238.748 7.60771L238.748 9.5326C239.379 8.84005 240.163 8.31045 241.1 7.9438C242.037 7.55679 243.066 7.36328 244.186 7.36328Z" fill="rgb(255,255,255)" fill-rule="nonzero" />
	<path id="Vector" d="M221.384 24.2901C219.652 24.2901 218.094 23.9336 216.709 23.2207C215.344 22.4874 214.275 21.4791 213.501 20.1959C212.727 18.9126 212.34 17.4562 212.34 15.8267C212.34 14.1972 212.727 12.7408 213.501 11.4575C214.275 10.1742 215.344 9.17614 216.709 8.46322C218.094 7.72993 219.652 7.36328 221.384 7.36328C223.115 7.36328 224.663 7.72993 226.028 8.46322C227.393 9.17614 228.462 10.1742 229.236 11.4575C230.01 12.7408 230.397 14.1972 230.397 15.8267C230.397 17.4562 230.01 18.9126 229.236 20.1959C228.462 21.4791 227.393 22.4874 226.028 23.2207C224.663 23.9336 223.115 24.2901 221.384 24.2901ZM221.384 20.3792C222.606 20.3792 223.604 19.9718 224.378 19.1571C225.172 18.3219 225.57 17.2118 225.57 15.8267C225.57 14.4416 225.172 13.3416 224.378 12.5269C223.604 11.6917 222.606 11.2742 221.384 11.2742C220.162 11.2742 219.153 11.6917 218.359 12.5269C217.565 13.3416 217.167 14.4416 217.167 15.8267C217.167 17.2118 217.565 18.3219 218.359 19.1571C219.153 19.9718 220.162 20.3792 221.384 20.3792Z" fill="rgb(255,255,255)" fill-rule="nonzero" />
	<path id="Vector" d="M203.758 7.6079L208.525 7.6079L208.525 24.0459L203.758 24.0459L203.758 7.6079ZM206.141 5.31637C205.266 5.31637 204.553 5.06175 204.003 4.55252C203.453 4.04329 203.178 3.41184 203.178 2.65818C203.178 1.90452 203.453 1.27308 204.003 0.763847C204.553 0.254615 205.266 0 206.141 0C207.017 0 207.73 0.244431 208.28 0.733293C208.83 1.22215 209.105 1.83323 209.105 2.56652C209.105 3.36092 208.83 4.02292 208.28 4.55252C207.73 5.06175 207.017 5.31637 206.141 5.31637Z" fill="rgb(255,255,255)" fill-rule="nonzero" />
	<path id="Vector" d="M106.143 24.2597C105.268 24.2597 104.555 24.0051 104.005 23.4959C103.455 22.9866 103.18 22.3552 103.18 21.6015C103.18 20.8479 103.455 20.2164 104.005 19.7072C104.555 19.198 105.268 18.9434 106.143 18.9434C107.019 18.9434 107.732 19.1878 108.282 19.6767C108.832 20.1655 109.107 20.7766 109.107 21.5099C109.107 22.3043 108.832 22.9663 108.282 23.4959C107.732 24.0051 107.019 24.2597 106.143 24.2597Z" fill="rgb(255,255,255)" fill-rule="nonzero" />
	<path id="Vector" d="M105.94 15.2968C105.064 15.2968 104.351 15.0422 103.802 14.533C103.252 14.0238 102.977 13.3923 102.977 12.6387C102.977 11.885 103.252 11.2535 103.802 10.7443C104.351 10.2351 105.064 9.98047 105.94 9.98047C106.816 9.98047 107.529 10.2249 108.079 10.7138C108.629 11.2026 108.904 11.8137 108.904 12.547C108.904 13.3414 108.629 14.0034 108.079 14.533C107.529 15.0422 106.816 15.2968 105.94 15.2968Z" fill="rgb(255,255,255)" fill-rule="nonzero" />
	<path id="Vector" d="M200.472 23.2521C200.003 23.5984 199.423 23.8632 198.73 24.0465C198.058 24.2095 197.345 24.2909 196.591 24.2909C194.636 24.2909 193.118 23.7919 192.039 22.7938C190.98 21.7957 190.45 20.3291 190.45 18.3941L190.45 11.6417L187.914 11.6417L187.914 7.97521L190.45 7.97521L190.45 3.97266L195.216 3.97266L195.216 7.97521L199.311 7.97521L199.311 11.6417L195.216 11.6417L195.216 18.333C195.216 19.0255 195.39 19.5653 195.736 19.9523C196.102 20.319 196.612 20.5023 197.264 20.5023C198.017 20.5023 198.659 20.2986 199.188 19.8912L200.472 23.2521Z" fill="rgb(255,255,255)" fill-rule="nonzero" />
	<path id="Vector" d="M177.442 7.36328C179.988 7.36328 181.943 7.97436 183.308 9.19651C184.673 10.3983 185.355 12.2213 185.355 14.6656L185.355 24.0457L180.894 24.0457L180.894 21.9986C179.998 23.5263 178.328 24.2901 175.884 24.2901C174.621 24.2901 173.521 24.0762 172.584 23.6485C171.667 23.2207 170.964 22.63 170.475 21.8763C169.987 21.1227 169.742 20.2672 169.742 19.3098C169.742 17.7821 170.313 16.5804 171.453 15.7045C172.614 14.8286 174.397 14.3907 176.8 14.3907L180.589 14.3907C180.589 13.3518 180.273 12.5574 179.642 12.0075C179.01 11.4371 178.063 11.152 176.8 11.152C175.924 11.152 175.059 11.2945 174.203 11.5797C173.368 11.8445 172.655 12.2112 172.064 12.6796L170.353 9.34928C171.25 8.71783 172.319 8.22897 173.561 7.8827C174.824 7.53642 176.118 7.36328 177.442 7.36328ZM177.075 21.0819C177.89 21.0819 178.613 20.8986 179.244 20.532C179.876 20.145 180.324 19.5848 180.589 18.8515L180.589 17.1711L177.32 17.1711C175.364 17.1711 174.386 17.8127 174.386 19.0959C174.386 19.707 174.621 20.1959 175.089 20.5625C175.578 20.9088 176.24 21.0819 177.075 21.0819Z" fill="rgb(255,255,255)" fill-rule="nonzero" />
	<path id="Vector" d="M160.09 24.2901C158.338 24.2901 156.76 23.9336 155.354 23.2207C153.969 22.4874 152.879 21.4791 152.085 20.1959C151.311 18.9126 150.924 17.4562 150.924 15.8267C150.924 14.1972 151.311 12.7408 152.085 11.4575C152.879 10.1742 153.969 9.17614 155.354 8.46322C156.76 7.72993 158.338 7.36328 160.09 7.36328C161.821 7.36328 163.329 7.72993 164.612 8.46322C165.916 9.17614 166.863 10.2048 167.453 11.5492L163.756 13.5352C162.901 12.0278 161.669 11.2742 160.059 11.2742C158.817 11.2742 157.788 11.6816 156.973 12.4963C156.159 13.3111 155.751 14.4212 155.751 15.8267C155.751 17.2322 156.159 18.3423 156.973 19.1571C157.788 19.9718 158.817 20.3792 160.059 20.3792C161.689 20.3792 162.921 19.6255 163.756 18.1182L167.453 20.1348C166.863 21.4384 165.916 22.4569 164.612 23.1902C163.329 23.9235 161.821 24.2901 160.09 24.2901Z" fill="rgb(255,255,255)" fill-rule="nonzero" />
	<path id="Vector" d="M139.337 24.2901C137.606 24.2901 136.048 23.9336 134.662 23.2207C133.298 22.4874 132.228 21.4791 131.454 20.1959C130.68 18.9126 130.293 17.4562 130.293 15.8267C130.293 14.1972 130.68 12.7408 131.454 11.4575C132.228 10.1742 133.298 9.17614 134.662 8.46322C136.048 7.72993 137.606 7.36328 139.337 7.36328C141.069 7.36328 142.617 7.72993 143.981 8.46322C145.346 9.17614 146.415 10.1742 147.189 11.4575C147.964 12.7408 148.351 14.1972 148.351 15.8267C148.351 17.4562 147.964 18.9126 147.189 20.1959C146.415 21.4791 145.346 22.4874 143.981 23.2207C142.617 23.9336 141.069 24.2901 139.337 24.2901ZM139.337 20.3792C140.559 20.3792 141.557 19.9718 142.331 19.1571C143.126 18.3219 143.523 17.2118 143.523 15.8267C143.523 14.4416 143.126 13.3416 142.331 12.5269C141.557 11.6917 140.559 11.2742 139.337 11.2742C138.115 11.2742 137.107 11.6917 136.312 12.5269C135.518 13.3416 135.121 14.4416 135.121 15.8267C135.121 17.2118 135.518 18.3219 136.312 19.1571C137.107 19.9718 138.115 20.3792 139.337 20.3792Z" fill="rgb(255,255,255)" fill-rule="nonzero" />
	<path id="Vector" d="M99.951 15.8878C99.951 15.9489 99.9204 16.3767 99.8593 17.1711L87.4239 17.1711C87.648 18.1895 88.1776 18.9941 89.0127 19.5848C89.8478 20.1755 90.8867 20.4709 92.1292 20.4709C92.9847 20.4709 93.7384 20.3487 94.3902 20.1042C95.0624 19.8394 95.6836 19.432 96.254 18.8821L98.7899 21.6319C97.2419 23.404 94.9809 24.2901 92.007 24.2901C90.1534 24.2901 88.5137 23.9336 87.0878 23.2207C85.662 22.4874 84.562 21.4791 83.788 20.1959C83.014 18.9126 82.627 17.4562 82.627 15.8267C82.627 14.2175 83.0038 12.7713 83.7574 11.488C84.5315 10.1844 85.5805 9.17614 86.9045 8.46322C88.2489 7.72993 89.746 7.36328 91.3959 7.36328C93.0051 7.36328 94.4615 7.70956 95.7651 8.40211C97.0687 9.09466 98.0872 10.0928 98.8205 11.3964C99.5741 12.6796 99.951 14.1768 99.951 15.8878ZM91.4265 10.9686C90.3469 10.9686 89.4405 11.2742 88.7072 11.8852C87.9739 12.4963 87.5257 13.3315 87.3628 14.3907L95.4596 14.3907C95.2966 13.3518 94.8485 12.5269 94.1152 11.9158C93.3819 11.2844 92.4856 10.9686 91.4265 10.9686Z" fill="rgb(255,255,255)" fill-rule="nonzero" />
	<path id="Vector" d="M75.1407 24.0469L71.0159 18.0889L70.7715 18.0889L66.4634 18.0889L66.4634 24.0469L61.5137 24.0469L61.5137 2.65918L70.7715 2.65918C72.6658 2.65918 74.3055 2.9749 75.6906 3.60635C77.0961 4.23779 78.1757 5.13404 78.9294 6.29508C79.683 7.45613 80.0598 8.83105 80.0598 10.4199C80.0598 12.0086 79.6728 13.3836 78.8988 14.5446C78.1451 15.6853 77.0656 16.5612 75.6601 17.1722L80.457 24.0469L75.1407 24.0469ZM75.049 10.4199C75.049 9.21807 74.662 8.30145 73.888 7.67001C73.1139 7.01819 71.9834 6.69228 70.4965 6.69228L66.4634 6.69228L66.4634 14.1474L70.4965 14.1474C71.9834 14.1474 73.1139 13.8215 73.888 13.1697C74.662 12.5179 75.049 11.6013 75.049 10.4199Z" fill="rgb(255,255,255)" fill-rule="nonzero" />
	<path id="Vector" d="M112.959 2.64746L117.909 2.64746L117.909 20.002L128.633 20.002L128.633 24.0351L112.959 24.0351L112.959 2.64746Z" fill="rgb(255,255,255)" fill-rule="nonzero" />
</svg>
