<svg width="252" height="57" viewBox="0 0 252 57" fill="none" xmlns="http://www.w3.org/2000/svg">
  <path d="M222.692 53.2796C222.224 53.6259 221.643 53.8907 220.951 54.074C220.279 54.237 219.566 54.3185 218.812 54.3185C216.857 54.3185 215.339 53.8194 214.26 52.8213C213.2 51.8232 212.671 50.3566 212.671 48.4215V41.6691H210.135V38.0026H212.671V34H217.437V38.0026H221.531V41.6691H217.437V48.3604C217.437 49.053 217.61 49.5928 217.957 49.9798C218.323 50.3464 218.832 50.5297 219.484 50.5297C220.238 50.5297 220.88 50.3261 221.409 49.9187L222.692 53.2796Z" fill="white"/>
  <path d="M202.493 37.6363H207.259V54.0744H202.493V37.6363ZM204.876 35.3447C204 35.3447 203.287 35.0901 202.737 34.5809C202.187 34.0716 201.912 33.4402 201.912 32.6865C201.912 31.9329 202.187 31.3014 202.737 30.7922C203.287 30.2829 204 30.0283 204.876 30.0283C205.752 30.0283 206.465 30.2728 207.015 30.7616C207.565 31.2505 207.84 31.8616 207.84 32.5949C207.84 33.3893 207.565 34.0513 207.015 34.5809C206.465 35.0901 205.752 35.3447 204.876 35.3447Z" fill="white"/>
  <path d="M191.091 37.3916C193.148 37.3916 194.778 38.0027 195.979 39.2248C197.202 40.4266 197.813 42.2395 197.813 44.6635V54.0741H193.046V45.3968C193.046 44.0931 192.771 43.1256 192.221 42.4941C191.692 41.8423 190.928 41.5164 189.93 41.5164C188.809 41.5164 187.923 41.883 187.272 42.6163C186.62 43.3293 186.294 44.3987 186.294 45.8245V54.0741H181.527V45.3968C181.527 42.8099 180.489 41.5164 178.411 41.5164C177.311 41.5164 176.435 41.883 175.783 42.6163C175.131 43.3293 174.806 44.3987 174.806 45.8245V54.0741H170.039V37.636H174.592V39.5304C175.203 38.8378 175.946 38.3082 176.822 37.9416C177.718 37.5749 178.696 37.3916 179.755 37.3916C180.916 37.3916 181.965 37.6258 182.902 38.0943C183.839 38.5425 184.593 39.2045 185.163 40.0804C185.836 39.2248 186.681 38.5628 187.699 38.0943C188.738 37.6258 189.869 37.3916 191.091 37.3916Z" fill="white"/>
  <path d="M158.841 37.3916C160.898 37.3916 162.528 38.0027 163.729 39.2248C164.952 40.4266 165.563 42.2395 165.563 44.6635V54.0741H160.796V45.3968C160.796 44.0931 160.521 43.1256 159.971 42.4941C159.442 41.8423 158.678 41.5164 157.68 41.5164C156.559 41.5164 155.673 41.883 155.022 42.6163C154.37 43.3293 154.044 44.3987 154.044 45.8245V54.0741H149.277V45.3968C149.277 42.8099 148.239 41.5164 146.161 41.5164C145.061 41.5164 144.185 41.883 143.533 42.6163C142.881 43.3293 142.556 44.3987 142.556 45.8245V54.0741H137.789V37.636H142.342V39.5304C142.953 38.8378 143.696 38.3082 144.572 37.9416C145.468 37.5749 146.446 37.3916 147.505 37.3916C148.666 37.3916 149.715 37.6258 150.652 38.0943C151.589 38.5425 152.343 39.2045 152.913 40.0804C153.586 39.2248 154.431 38.5628 155.449 38.0943C156.488 37.6258 157.619 37.3916 158.841 37.3916Z" fill="white"/>
  <path d="M132.966 37.6357V54.0738H128.444V52.1184C127.813 52.8313 127.059 53.3813 126.183 53.7683C125.308 54.1349 124.36 54.3183 123.342 54.3183C121.183 54.3183 119.472 53.697 118.209 52.4545C116.946 51.2119 116.314 49.3685 116.314 46.9242V37.6357H121.081V46.2214C121.081 48.8695 122.191 50.1935 124.411 50.1935C125.552 50.1935 126.469 49.8268 127.161 49.0935C127.854 48.3399 128.2 47.2297 128.2 45.7631V37.6357H132.966Z" fill="white"/>
  <path d="M103.675 54.4405C101.984 54.4405 100.344 54.2164 98.7555 53.7683C97.1871 53.2998 95.9242 52.6989 94.9668 51.9656L96.6473 48.238C97.5639 48.9102 98.6537 49.45 99.9166 49.8574C101.179 50.2648 102.442 50.4684 103.705 50.4684C105.111 50.4684 106.15 50.2648 106.822 49.8574C107.494 49.4296 107.83 48.8695 107.83 48.1769C107.83 47.6677 107.626 47.2501 107.219 46.9242C106.832 46.5779 106.323 46.3029 105.691 46.0992C105.08 45.8955 104.245 45.6715 103.186 45.427C101.556 45.04 100.222 44.653 99.1833 44.266C98.1444 43.879 97.2482 43.2577 96.4945 42.4022C95.7612 41.5467 95.3946 40.406 95.3946 38.9801C95.3946 37.7376 95.7306 36.6173 96.4028 35.6192C97.075 34.6007 98.0833 33.7961 99.4277 33.2054C100.792 32.6147 102.453 32.3193 104.408 32.3193C105.773 32.3193 107.107 32.4823 108.411 32.8082C109.714 33.1341 110.855 33.6026 111.833 34.2137L110.305 37.9718C108.329 36.8515 106.353 36.2914 104.377 36.2914C102.992 36.2914 101.964 36.5154 101.291 36.9636C100.64 37.4117 100.314 38.0024 100.314 38.7357C100.314 39.469 100.691 40.019 101.444 40.3856C102.218 40.7319 103.39 41.0782 104.958 41.4244C106.588 41.8115 107.922 42.1985 108.961 42.5855C109.999 42.9725 110.885 43.5836 111.619 44.4187C112.372 45.2539 112.749 46.3844 112.749 47.8102C112.749 49.0324 112.403 50.1527 111.71 51.1712C111.038 52.1693 110.02 52.9637 108.655 53.5544C107.29 54.1451 105.63 54.4405 103.675 54.4405Z" fill="white"/>
  <path d="M77.2035 36.7197H70.3594V32.6865H88.9974V36.7197H82.1532V54.0744H77.2035V36.7197Z" fill="white"/>
  <path d="M62.1367 32.6865H67.0865V54.0744H62.1367V32.6865Z" fill="white"/>
  <path d="M30.4459 53.4072C30.4459 55.3451 26.6931 56.916 22.0637 56.916C17.4344 56.916 13.6816 55.3451 13.6816 53.4072C13.6816 51.4694 17.4344 49.8984 22.0637 49.8984C22.3267 49.8984 22.5867 49.9035 22.8435 49.9134C23.1406 49.9249 20.8721 53.3513 21.7291 53.3513C23.155 54.5734 30.2843 52.7181 30.2843 52.7181C30.3903 52.941 30.4459 53.1714 30.4459 53.4072Z" fill="white" fill-opacity="0.4"/>
  <path d="M244.808 7.44824C246.845 7.44824 248.484 8.05932 249.727 9.28148C250.99 10.5036 251.621 12.3165 251.621 14.7201V24.1308H246.855V15.4534C246.855 14.1498 246.57 13.1822 245.999 12.5508C245.429 11.899 244.604 11.573 243.524 11.573C242.323 11.573 241.365 11.9499 240.652 12.7035C239.939 13.4368 239.583 14.5368 239.583 16.0034V24.1308H234.816V7.69267H239.369V9.61758C240 8.92502 240.785 8.39542 241.722 8.02877C242.659 7.64175 243.687 7.44824 244.808 7.44824Z" fill="white"/>
  <path d="M222.005 24.3752C220.274 24.3752 218.715 24.0187 217.33 23.3058C215.965 22.5725 214.896 21.5642 214.122 20.2809C213.348 18.9977 212.961 17.5413 212.961 15.9117C212.961 14.2822 213.348 12.8258 214.122 11.5425C214.896 10.2592 215.965 9.26112 217.33 8.54819C218.715 7.81489 220.274 7.44824 222.005 7.44824C223.736 7.44824 225.284 7.81489 226.649 8.54819C228.014 9.26112 229.083 10.2592 229.857 11.5425C230.631 12.8258 231.018 14.2822 231.018 15.9117C231.018 17.5413 230.631 18.9977 229.857 20.2809C229.083 21.5642 228.014 22.5725 226.649 23.3058C225.284 24.0187 223.736 24.3752 222.005 24.3752ZM222.005 20.4643C223.227 20.4643 224.225 20.0569 224.999 19.2421C225.794 18.407 226.191 17.2968 226.191 15.9117C226.191 14.5266 225.794 13.4267 224.999 12.6119C224.225 11.7767 223.227 11.3592 222.005 11.3592C220.783 11.3592 219.774 11.7767 218.98 12.6119C218.186 13.4267 217.788 14.5266 217.788 15.9117C217.788 17.2968 218.186 18.407 218.98 19.2421C219.774 20.0569 220.783 20.4643 222.005 20.4643Z" fill="white"/>
  <path d="M204.383 7.69292H209.15V24.131H204.383V7.69292ZM206.766 5.40137C205.891 5.40137 205.178 5.14675 204.628 4.63752C204.078 4.12828 203.803 3.49683 203.803 2.74316C203.803 1.9895 204.078 1.35805 204.628 0.848813C205.178 0.339578 205.891 0.0849609 206.766 0.0849609C207.642 0.0849609 208.355 0.329394 208.905 0.81826C209.455 1.30712 209.73 1.91821 209.73 2.6515C209.73 3.44591 209.455 4.10791 208.905 4.63752C208.355 5.14675 207.642 5.40137 206.766 5.40137Z" fill="white"/>
  <path d="M106.765 24.3447C105.889 24.3447 105.176 24.0901 104.626 23.5809C104.076 23.0716 103.801 22.4402 103.801 21.6865C103.801 20.9329 104.076 20.3014 104.626 19.7922C105.176 19.2829 105.889 19.0283 106.765 19.0283C107.64 19.0283 108.353 19.2728 108.903 19.7616C109.453 20.2505 109.728 20.8616 109.728 21.5949C109.728 22.3893 109.453 23.0513 108.903 23.5809C108.353 24.0901 107.64 24.3447 106.765 24.3447Z" fill="white"/>
  <path d="M106.561 15.3818C105.686 15.3818 104.973 15.1272 104.423 14.618C103.873 14.1088 103.598 13.4773 103.598 12.7236C103.598 11.97 103.873 11.3385 104.423 10.8293C104.973 10.32 105.686 10.0654 106.561 10.0654C107.437 10.0654 108.15 10.3099 108.7 10.7987C109.25 11.2876 109.525 11.8987 109.525 12.632C109.525 13.4264 109.25 14.0884 108.7 14.618C108.15 15.1272 107.437 15.3818 106.561 15.3818Z" fill="white"/>
  <path d="M201.097 23.3363C200.628 23.6825 200.048 23.9473 199.355 24.1307C198.683 24.2936 197.97 24.3751 197.216 24.3751C195.261 24.3751 193.743 23.876 192.664 22.8779C191.605 21.8798 191.075 20.4132 191.075 18.4782V11.7257H188.539V8.05922H191.075V4.05664H195.841V8.05922H199.936V11.7257H195.841V18.417C195.841 19.1096 196.015 19.6494 196.361 20.0364C196.728 20.4031 197.237 20.5864 197.889 20.5864C198.642 20.5864 199.284 20.3827 199.814 19.9753L201.097 23.3363Z" fill="white"/>
  <path d="M178.063 7.44824C180.609 7.44824 182.565 8.05932 183.929 9.28149C185.294 10.4833 185.976 12.3063 185.976 14.7507V24.1308H181.516V22.0836C180.619 23.6113 178.949 24.3752 176.505 24.3752C175.242 24.3752 174.142 24.1613 173.205 23.7336C172.288 23.3058 171.585 22.7151 171.097 21.9614C170.608 21.2078 170.363 20.3522 170.363 19.3949C170.363 17.8672 170.934 16.6654 172.074 15.7895C173.235 14.9136 175.018 14.4757 177.421 14.4757H181.21C181.21 13.4368 180.894 12.6424 180.263 12.0925C179.631 11.5221 178.684 11.2369 177.421 11.2369C176.545 11.2369 175.68 11.3795 174.824 11.6647C173.989 11.9295 173.276 12.2962 172.685 12.7646L170.974 9.43426C171.871 8.8028 172.94 8.31394 174.183 7.96766C175.445 7.62138 176.739 7.44824 178.063 7.44824ZM177.696 21.167C178.511 21.167 179.234 20.9837 179.866 20.617C180.497 20.23 180.945 19.6699 181.21 18.9366V17.2561H177.941C175.985 17.2561 175.007 17.8977 175.007 19.181C175.007 19.7921 175.242 20.2809 175.71 20.6476C176.199 20.9939 176.861 21.167 177.696 21.167Z" fill="white"/>
  <path d="M160.713 24.3752C158.961 24.3752 157.383 24.0187 155.977 23.3058C154.592 22.5725 153.502 21.5642 152.708 20.2809C151.934 18.9977 151.547 17.5413 151.547 15.9117C151.547 14.2822 151.934 12.8258 152.708 11.5425C153.502 10.2592 154.592 9.26112 155.977 8.54819C157.383 7.81489 158.961 7.44824 160.713 7.44824C162.444 7.44824 163.952 7.81489 165.235 8.54819C166.539 9.26112 167.486 10.2898 168.077 11.6341L164.38 13.6202C163.524 12.1128 162.292 11.3592 160.683 11.3592C159.44 11.3592 158.411 11.7665 157.597 12.5813C156.782 13.3961 156.374 14.5062 156.374 15.9117C156.374 17.3172 156.782 18.4273 157.597 19.2421C158.411 20.0569 159.44 20.4643 160.683 20.4643C162.312 20.4643 163.544 19.7106 164.38 18.2033L168.077 20.2198C167.486 21.5235 166.539 22.5419 165.235 23.2752C163.952 24.0085 162.444 24.3752 160.713 24.3752Z" fill="white"/>
  <path d="M139.96 24.3752C138.229 24.3752 136.67 24.0187 135.285 23.3058C133.921 22.5725 132.851 21.5642 132.077 20.2809C131.303 18.9977 130.916 17.5413 130.916 15.9117C130.916 14.2822 131.303 12.8258 132.077 11.5425C132.851 10.2592 133.921 9.26112 135.285 8.54819C136.67 7.81489 138.229 7.44824 139.96 7.44824C141.691 7.44824 143.239 7.81489 144.604 8.54819C145.969 9.26112 147.038 10.2592 147.812 11.5425C148.586 12.8258 148.973 14.2822 148.973 15.9117C148.973 17.5413 148.586 18.9977 147.812 20.2809C147.038 21.5642 145.969 22.5725 144.604 23.3058C143.239 24.0187 141.691 24.3752 139.96 24.3752ZM139.96 20.4643C141.182 20.4643 142.18 20.0569 142.954 19.2421C143.749 18.407 144.146 17.2968 144.146 15.9117C144.146 14.5266 143.749 13.4267 142.954 12.6119C142.18 11.7767 141.182 11.3592 139.96 11.3592C138.738 11.3592 137.73 11.7767 136.935 12.6119C136.141 13.4267 135.744 14.5266 135.744 15.9117C135.744 17.2968 136.141 18.407 136.935 19.2421C137.73 20.0569 138.738 20.4643 139.96 20.4643Z" fill="white"/>
  <path d="M100.574 15.9728C100.574 16.0339 100.544 16.4617 100.482 17.2561H88.047C88.2711 18.2746 88.8007 19.0792 89.6358 19.6699C90.4709 20.2606 91.5098 20.5559 92.7523 20.5559C93.6078 20.5559 94.3615 20.4337 95.0133 20.1893C95.6855 19.9245 96.3068 19.5171 96.8771 18.9671L99.4131 21.717C97.865 23.4891 95.604 24.3752 92.6301 24.3752C90.7765 24.3752 89.1367 24.0187 87.7109 23.3058C86.285 22.5725 85.1851 21.5642 84.4111 20.2809C83.637 18.9977 83.25 17.5413 83.25 15.9117C83.25 14.3025 83.6268 12.8563 84.3805 11.573C85.1545 10.2694 86.2036 9.26112 87.5276 8.54819C88.8719 7.81489 90.3691 7.44824 92.019 7.44824C93.6282 7.44824 95.0846 7.79452 96.3882 8.48708C97.6919 9.17964 98.7104 10.1777 99.4437 11.4814C100.197 12.7646 100.574 14.2618 100.574 15.9728ZM92.0496 11.0536C90.97 11.0536 90.0636 11.3592 89.3303 11.9702C88.597 12.5813 88.1488 13.4165 87.9859 14.4757H96.0827C95.9198 13.4368 95.4716 12.6119 94.7383 12.0008C94.005 11.3693 93.1088 11.0536 92.0496 11.0536Z" fill="white"/>
  <path d="M75.7638 24.131L71.639 18.173H71.3946H67.0865V24.131H62.1367V2.74316H71.3946C73.289 2.74316 74.9287 3.05889 76.3138 3.69034C77.7193 4.32179 78.7989 5.21804 79.5525 6.3791C80.3062 7.54015 80.683 8.91508 80.683 10.5039C80.683 12.0927 80.296 13.4676 79.522 14.6287C78.7683 15.7694 77.6887 16.6453 76.2832 17.2563L81.0802 24.131H75.7638ZM75.6722 10.5039C75.6722 9.3021 75.2851 8.38548 74.5111 7.75403C73.7371 7.10221 72.6066 6.7763 71.1196 6.7763H67.0865V14.2315H71.1196C72.6066 14.2315 73.7371 13.9056 74.5111 13.2538C75.2851 12.6019 75.6722 11.6853 75.6722 10.5039Z" fill="white"/>
  <path d="M113.582 2.7334H118.532V20.0881H129.256V24.1212H113.582V2.7334Z" fill="white"/>
  <path d="M21.8691 2.5293C33.6037 2.5295 43.1162 12.0425 43.1162 23.7773C43.1162 24.5628 43.0723 25.3382 42.9893 26.1016C42.2593 33.873 38.0521 46.0524 21.7373 53.4404C21.5343 53.5323 21.1987 53.1262 21.3057 52.9307C22.5459 50.6828 23.8091 45.8114 19.1348 44.8506C18.8487 44.8138 18.5646 44.7697 18.2822 44.7217C18.271 44.7199 18.2599 44.7179 18.249 44.7158C8.23888 42.9974 0.621168 34.278 0.621094 23.7773C0.621104 12.0423 10.1344 2.5293 21.8691 2.5293ZM21.8828 15.9727C17.5655 15.9729 14.0646 19.4737 14.0645 23.791C14.0646 27.6436 16.8528 30.8424 20.5205 31.4873C20.5418 31.4933 20.5658 31.4983 20.5918 31.501C20.5928 31.5011 20.5946 31.5009 20.5957 31.501C20.6755 31.5142 20.7563 31.5253 20.8369 31.5361C22.4425 31.8392 22.2028 33.3641 21.8008 34.2656C21.7481 34.3857 21.9692 34.6434 22.0879 34.5879C27.4265 32.0721 29.0836 28.1386 29.5479 25.332C29.6367 24.8875 29.6853 24.4292 29.6953 23.9609C29.6959 23.9509 29.6978 23.9406 29.6982 23.9307C29.6982 23.9278 29.6964 23.9247 29.6963 23.9219C29.697 23.8784 29.7002 23.8346 29.7002 23.791C29.7 19.4736 26.2003 15.9727 21.8828 15.9727Z" fill="white"/>
</svg>
