<svg xmlns="http://www.w3.org/2000/svg" width="74" height="59" fill="none"><mask id="a" width="74" height="59" x="0" y="0" fill="#000" maskUnits="userSpaceOnUse"><path fill="#fff" d="M0 0h74v59H0z"/><path d="M64.25 5a4.75 4.75 0 0 1 .215 9.494c1.18.533 1.53 1.74 1.534 1.752l-.371 18.788a4.5 4.5 0 0 1-.158 8.013l-.048 2.453h1.327a1.25 1.25 0 0 1 0 2.5h-1.377l-.079 4.004h1.456a1.25 1.25 0 0 1 0 2.5H7.25a1.25 1.25 0 0 1 0-2.5h.22L7.419 48H7.25a1.25 1.25 0 0 1 0-2.5h.135l-.038-2.867A4.492 4.492 0 0 1 5.5 39c0-1.45.686-2.74 1.752-3.563L7 16.247s.396-1.38 1.777-1.848a4.75 4.75 0 1 1 1.98-.007c3.487 1.02 5.068 7.298 7.07 12.125 1.395-3.544 2.836-6.825 5.066-7.596a4.75 4.75 0 1 1 1.907-.04c1.936.584 3.281 3.041 4.507 5.958 1.831-4.535 3.415-9.627 6.332-10.47a4.751 4.751 0 1 1 1.913.062c3.136 1.128 4.709 7.245 6.808 12 1.385-3.51 2.821-6.746 5.033-7.51a4.75 4.75 0 1 1 1.907-.04c1.915.578 3.253 2.99 4.468 5.866 1.83-4.74 3.584-10.052 7.039-10.472A4.75 4.75 0 0 1 64.25 5Z"/></mask><path fill="#31D2F7" d="M64.25 5a4.75 4.75 0 0 1 .215 9.494c1.18.533 1.53 1.74 1.534 1.752l-.371 18.788a4.5 4.5 0 0 1-.158 8.013l-.048 2.453h1.327a1.25 1.25 0 0 1 0 2.5h-1.377l-.079 4.004h1.456a1.25 1.25 0 0 1 0 2.5H7.25a1.25 1.25 0 0 1 0-2.5h.22L7.419 48H7.25a1.25 1.25 0 0 1 0-2.5h.135l-.038-2.867A4.492 4.492 0 0 1 5.5 39c0-1.45.686-2.74 1.752-3.563L7 16.247s.396-1.38 1.777-1.848a4.75 4.75 0 1 1 1.98-.007c3.487 1.02 5.068 7.298 7.07 12.125 1.395-3.544 2.836-6.825 5.066-7.596a4.75 4.75 0 1 1 1.907-.04c1.936.584 3.281 3.041 4.507 5.958 1.831-4.535 3.415-9.627 6.332-10.47a4.751 4.751 0 1 1 1.913.062c3.136 1.128 4.709 7.245 6.808 12 1.385-3.51 2.821-6.746 5.033-7.51a4.75 4.75 0 1 1 1.907-.04c1.915.578 3.253 2.99 4.468 5.866 1.83-4.74 3.584-10.052 7.039-10.472A4.75 4.75 0 0 1 64.25 5Z"/><path fill="#E6FD88" d="M64.25 5V.68 5ZM69 9.75h4.32H69Zm-4.535 4.744-.192-4.316-1.587 8.253 1.779-3.937Zm1.534 1.752 4.32.085.012-.655-.182-.63-4.15 1.2Zm-.371 18.788-4.32-.085-.051 2.64 2.325 1.25 2.046-3.805ZM68 39h4.32H68Zm-2.53 4.047-1.894-3.883-2.374 1.158-.051 2.64 4.319.085Zm-.048 2.453-4.32-.084-.085 4.404h4.405V45.5Zm2.577 1.25h4.32-4.32ZM65.372 48v-4.32h-4.235l-.084 4.235 4.32.085Zm-.079 4.004-4.32-.085-.086 4.405h4.406v-4.32Zm2.706 1.25h4.32-4.32ZM6 53.254H1.68 6Zm1.47-1.25v4.32h4.378l-.058-4.377-4.32.057ZM7.419 48l4.32-.057-.057-4.263H7.418V48ZM6 46.75H1.68 6Zm1.385-1.25v4.32h4.377l-.058-4.377-4.32.057Zm-.038-2.867 4.32-.058-.03-2.156-1.74-1.273-2.55 3.487ZM5.5 39H1.18 5.5Zm1.752-3.563 2.64 3.419 1.708-1.32-.028-2.156-4.32.056ZM7 16.247l-4.152-1.194-.176.612.008.638L7 16.246Zm1.777-1.848 1.386 4.092 15.03-5.088L9.657 10.17l-.88 4.23ZM5 9.75H.68 5ZM9.75 5V.68 5Zm4.75 4.75h4.32-4.32Zm-3.743 4.642-.912-4.223-.3 8.369 1.212-4.146Zm7.07 12.125-3.99 1.655 4.095 9.87 3.915-9.943-4.02-1.582Zm5.066-7.596 1.411 4.083 15.558-5.38-16.195-2.953-.774 4.25ZM19 14.25h-4.32H19Zm4.75-4.75V5.18 9.5Zm4.75 4.75h4.32-4.32Zm-3.7 4.632-.951-4.214-16.023 3.616 15.729 4.734 1.245-4.136Zm4.507 5.957-3.983 1.673 4.061 9.668 3.927-9.723-4.005-1.618Zm6.332-10.47 1.2 4.15 15.7-4.541-15.893-3.81-1.007 4.2ZM32 9.75h-4.32H32ZM36.75 5V.68 5Zm4.75 4.75h4.32-4.32Zm-3.948 4.68-.724-4.258-16.208 2.756 15.469 5.567 1.463-4.064Zm6.808 12-3.951 1.746 4.176 9.458 3.794-9.618-4.019-1.585Zm5.033-7.51 1.41 4.084 15.564-5.38-16.2-2.953-.774 4.25ZM45.5 14.25h-4.32 4.32Zm4.75-4.75V5.18 9.5ZM55 14.25h4.32H55Zm-3.7 4.632-.952-4.214-16.017 3.616 15.723 4.734 1.246-4.136Zm4.468 5.865-3.98 1.681 4.159 9.845 3.85-9.97-4.03-1.556Zm7.039-10.472.52 4.289.791-8.405-1.311 4.116ZM59.5 9.75h-4.32 4.32ZM64.25 5v4.32a.43.43 0 0 1 .43.43h8.64A9.07 9.07 0 0 0 64.25.68V5ZM69 9.75h-4.32a.43.43 0 0 1-.407.428l.192 4.316.192 4.316c4.82-.215 8.663-4.186 8.663-9.06H69Zm-4.535 4.744-1.779 3.937c-.4-.18-.594-.447-.656-.544a1.594 1.594 0 0 1-.18-.441l4.149-1.2 4.15-1.2c-.056-.193-.862-3.113-3.905-4.489l-1.78 3.937Zm1.534 1.752-4.319-.085-.371 18.788 4.319.085 4.319.086.371-18.789L66 16.246Zm-.371 18.788-2.046 3.805a.204.204 0 0 1 .075.07.158.158 0 0 1 .023.091h8.64a8.82 8.82 0 0 0-4.646-7.77l-2.046 3.804ZM68 39h-4.32a.157.157 0 0 1-.025.093.2.2 0 0 1-.079.071l1.894 3.883 1.893 3.883A8.82 8.82 0 0 0 72.32 39H68Zm-2.53 4.047-4.32-.084-.047 2.453 4.319.084 4.319.084.048-2.453-4.32-.084Zm-.048 2.453v4.32h1.327v-8.64h-1.327v4.32Zm1.327 0v4.32a3.07 3.07 0 0 1-3.07-3.07h8.64a5.57 5.57 0 0 0-5.57-5.57v4.32Zm1.25 1.25h-4.32a3.07 3.07 0 0 1 3.07-3.07v8.64a5.57 5.57 0 0 0 5.57-5.57h-4.32ZM66.749 48v-4.32h-1.377v8.64h1.377V48Zm-1.377 0-4.319-.085-.08 4.004 4.32.085 4.319.085.08-4.004-4.32-.085Zm-.079 4.004v4.32h1.456v-8.64h-1.456v4.32Zm1.456 0v4.32a3.07 3.07 0 0 1-3.07-3.07h8.64a5.57 5.57 0 0 0-5.57-5.57v4.32Zm1.25 1.25h-4.32a3.07 3.07 0 0 1 3.07-3.07v8.64a5.57 5.57 0 0 0 5.57-5.57h-4.32Zm-1.25 1.25v-4.32H7.25v8.64h59.499v-4.32Zm-59.499 0v-4.32a3.07 3.07 0 0 1 3.07 3.07H1.68a5.57 5.57 0 0 0 5.57 5.57v-4.32ZM6 53.254h4.32a3.07 3.07 0 0 1-3.07 3.07v-8.64a5.57 5.57 0 0 0-5.57 5.57H6Zm1.25-1.25v4.32h.22v-8.64h-.22v4.32Zm.22 0 4.32-.057-.052-4.004-4.32.057-4.32.057.053 4.004 4.32-.057ZM7.419 48v-4.32H7.25v8.64h.168V48Zm-.168 0v-4.32a3.07 3.07 0 0 1 3.07 3.07H1.68a5.57 5.57 0 0 0 5.57 5.57V48ZM6 46.75h4.32a3.07 3.07 0 0 1-3.07 3.07v-8.64a5.57 5.57 0 0 0-5.57 5.57H6Zm1.25-1.25v4.32h.135v-8.64H7.25v4.32Zm.135 0 4.32-.057-.039-2.868-4.32.058-4.319.057.038 2.867 4.32-.057Zm-.038-2.867 2.55-3.487a.205.205 0 0 1-.06-.069A.156.156 0 0 1 9.82 39H1.18a8.812 8.812 0 0 0 3.616 7.12l2.55-3.487ZM5.5 39h4.32c0-.037.007-.06.017-.078a.201.201 0 0 1 .055-.066l-2.64-3.42-2.64-3.419A8.812 8.812 0 0 0 1.18 39H5.5Zm1.752-3.563 4.32-.057-.252-19.19-4.32.056-4.32.057.252 19.19 4.32-.056ZM7 16.247c4.152 1.192 4.151 1.194 4.15 1.196v.003l-.002.007a.402.402 0 0 1-.004.013l-.007.025a3.133 3.133 0 0 1-.085.239 1.083 1.083 0 0 1-.099.182c-.081.12-.326.422-.79.58l-1.386-4.093-1.385-4.091c-1.845.624-2.979 1.849-3.604 2.776a7.56 7.56 0 0 0-.845 1.673 5.932 5.932 0 0 0-.087.267l-.004.015-.002.007v.003c-.001.002-.002.004 4.15 1.197Zm1.777-1.848.88-4.229a.431.431 0 0 1-.337-.42H.68c0 4.379 3.098 8.021 7.217 8.879l.88-4.23ZM5 9.75h4.32a.43.43 0 0 1 .43-.43V.68A9.07 9.07 0 0 0 .68 9.75H5ZM9.75 5v4.32a.43.43 0 0 1 .43.43h8.64A9.07 9.07 0 0 0 9.75.68V5Zm4.75 4.75h-4.32a.43.43 0 0 1-.335.419l.912 4.223.912 4.222c4.084-.882 7.15-4.508 7.15-8.864H14.5Zm-3.743 4.642-1.212 4.146c-.222-.065-.148-.14.182.258.337.406.742 1.068 1.212 2.068.463.984.906 2.114 1.387 3.39.461 1.222.975 2.626 1.511 3.918l3.99-1.655 3.99-1.656c-.465-1.121-.9-2.312-1.407-3.657-.487-1.29-1.032-2.698-1.652-4.015-.61-1.3-1.38-2.701-2.382-3.91-1.01-1.218-2.441-2.459-4.407-3.034l-1.212 4.147Zm7.07 12.125 4.02 1.582c.704-1.79 1.3-3.185 1.907-4.202.666-1.113.913-1.019.55-.893l-1.411-4.083-1.412-4.083c-2.592.896-4.18 3.017-5.141 4.624-1.019 1.702-1.842 3.718-2.532 5.472l4.02 1.583Zm5.066-7.596.774-4.25a.43.43 0 0 1-.347-.421h-8.64c0 4.457 3.21 8.15 7.438 8.92l.775-4.25ZM19 14.25h4.32a.43.43 0 0 1 .43-.43V5.18a9.07 9.07 0 0 0-9.07 9.07H19Zm4.75-4.75v4.32a.43.43 0 0 1 .43.43h8.64a9.07 9.07 0 0 0-9.07-9.07V9.5Zm4.75 4.75h-4.32a.43.43 0 0 1-.331.418l.95 4.214.952 4.214c4.042-.913 7.069-4.518 7.069-8.846H28.5Zm-3.7 4.632-1.245 4.136c-.383-.115-.271-.27.218.434.464.667.966 1.668 1.55 3.06l3.984-1.673 3.982-1.673c-.64-1.525-1.424-3.21-2.423-4.647-.974-1.4-2.502-3.076-4.821-3.774L24.8 18.882Zm4.507 5.957 4.005 1.618c1.023-2.533 1.728-4.556 2.604-6.28.977-1.92 1.389-1.794.923-1.659l-1.2-4.15-1.2-4.15c-3.383.978-5.221 4.072-6.224 6.043-1.102 2.167-2.105 4.958-2.914 6.96l4.006 1.618Zm6.332-10.47 1.007-4.202a.431.431 0 0 1-.326-.417h-8.64c0 4.285 2.968 7.864 6.952 8.819l1.007-4.2ZM32 9.75h4.32a.43.43 0 0 1 .43-.43V.68a9.07 9.07 0 0 0-9.07 9.07H32ZM36.75 5v4.32a.43.43 0 0 1 .43.43h8.64A9.07 9.07 0 0 0 36.75.68V5Zm4.75 4.75h-4.32a.43.43 0 0 1-.352.422l.724 4.259.724 4.258c4.28-.728 7.544-4.445 7.544-8.939H41.5Zm-3.948 4.68-1.463 4.065c-.28-.1-.213-.193.132.255.337.437.736 1.125 1.203 2.135.46.995.907 2.122 1.404 3.394.478 1.227 1.009 2.602 1.58 3.897l3.952-1.745 3.952-1.745c-.478-1.083-.931-2.256-1.436-3.548-.487-1.248-1.023-2.612-1.61-3.881-.581-1.255-1.295-2.605-2.2-3.78-.898-1.165-2.203-2.446-4.051-3.111l-1.463 4.065Zm6.808 12 4.019 1.586c.697-1.768 1.288-3.144 1.889-4.142.656-1.09.897-.995.536-.87l-1.411-4.083-1.412-4.083c-2.573.89-4.155 2.985-5.116 4.58-1.016 1.688-1.836 3.685-2.523 5.428l4.018 1.585Zm5.033-7.51.774-4.249a.43.43 0 0 1-.347-.421h-8.64c0 4.457 3.21 8.15 7.438 8.92l.775-4.25ZM45.5 14.25h4.32a.43.43 0 0 1 .43-.43V5.18a9.07 9.07 0 0 0-9.07 9.07h4.32Zm4.75-4.75v4.32a.43.43 0 0 1 .43.43h8.64a9.07 9.07 0 0 0-9.07-9.07V9.5ZM55 14.25h-4.32a.43.43 0 0 1-.332.418l.952 4.214.951 4.214c4.042-.913 7.069-4.518 7.069-8.846H55Zm-3.7 4.632-1.246 4.136c-.38-.114-.273-.268.206.415.455.649.95 1.628 1.528 2.995l3.98-1.68 3.979-1.682c-.637-1.508-1.418-3.174-2.414-4.594-.972-1.387-2.492-3.036-4.788-3.727L51.3 18.882Zm4.468 5.865 4.03 1.557c.993-2.572 1.745-4.68 2.654-6.31.995-1.788 1.369-1.49.876-1.43l-.521-4.289-.521-4.288c-3.948.48-6.18 3.643-7.382 5.802-1.289 2.314-2.328 5.232-3.166 7.402l4.03 1.556Zm7.039-10.472 1.311-4.116a.431.431 0 0 1-.298-.409h-8.64c0 4.056 2.66 7.477 6.315 8.641l1.312-4.116ZM59.5 9.75h4.32a.43.43 0 0 1 .43-.43V.68a9.07 9.07 0 0 0-9.07 9.07h4.32Z" mask="url(#a)"/><circle cx="10" cy="39" r="4.5" fill="#F03A17"/><circle cx="63.5" cy="39" r="4.5" fill="#F03A17"/><path fill="#D48C00" d="M50.407 18.749c-6.226 0-6.775 18-13.5 18-6.25 0 10.75 4.5 4 4.5-2.176 0 2.75 3.75 2.75 3.75h14.25s5.925-2.75 3.75-2.75c-6.75.001 8.25-5.5 2.25-5.5-6.726 0-7.275-18-13.5-18Z"/><path fill="#D48C00" d="M55 14.25a4.75 4.75 0 1 1-9.5 0 4.75 4.75 0 0 1 9.5 0ZM23.907 18.749c-6.226 0-6.774 18-13.5 18-6.25 0 10.75 4.5 4 4.5-2.176 0 2.75 3.75 2.75 3.75h14.25s5.926-2.75 3.75-2.75c-6.75.001 8.25-5.5 2.25-5.5-6.726 0-7.274-18-13.5-18Z"/><path fill="#D48C00" d="M28.5 14.25a4.75 4.75 0 1 1-9.5 0 4.75 4.75 0 0 1 9.5 0Z"/><path fill="#FFC83D" d="M64.25 5a4.75 4.75 0 0 1 .215 9.494c1.18.533 1.53 1.74 1.534 1.752l-.75 38.001H7.5l-.5-38s.396-1.38 1.777-1.848a4.75 4.75 0 1 1 1.98-.007c5.785 1.69 6.32 17.854 12.243 17.854 6.402 0 7.207-16.307 12.639-17.878a4.751 4.751 0 1 1 1.913.063c5.26 1.893 6.122 17.815 12.448 17.815 5.865 0 6.475-17.202 12.807-17.97A4.75 4.75 0 0 1 64.25 5Z"/><rect width="61.999" height="2.5" x="6" y="45.5" fill="#EBA300" rx="1.25"/><rect width="61.999" height="2.5" x="6" y="52.004" fill="#EBA300" rx="1.25"/><circle cx="37.25" cy="37.75" r="5.75" fill="#0099BC"/><circle cx="36" cy="35.5" r="2.5" fill="#00BCF2"/><circle cx="55" cy="39" r="4.5" fill="#B4009E"/><circle cx="54" cy="37.5" r="1.5" fill="#CC76CA"/><circle cx="19.5" cy="39" r="4.5" fill="#B4009E"/><circle cx="18.5" cy="37.5" r="1.5" fill="#CC76CA"/></svg>