<svg xmlns="http://www.w3.org/2000/svg" version="1.1" xmlns:xlink="http://www.w3.org/1999/xlink" width="88" height="112"><svg width="88" height="112" viewBox="0 0 88 112" fill="none" xmlns="http://www.w3.org/2000/svg">
<path d="M61.5342 104.777C61.5342 108.759 53.8218 111.988 44.3081 111.988C34.7944 111.988 27.082 108.759 27.082 104.777C27.082 100.794 34.7944 97.5654 44.3081 97.5654C44.8484 97.5654 45.3829 97.5758 45.9105 97.5962C46.5212 97.6198 41.8592 104.662 43.6204 104.662C46.5507 107.174 61.2021 103.361 61.2021 103.361C61.4199 103.818 61.5342 104.292 61.5342 104.777Z" fill="white" fill-opacity="0.4"></path>
<path d="M43.9082 0.212891C68.0243 0.21289 87.5742 19.7648 87.5742 43.8828C87.5742 45.4632 87.4879 47.0236 87.3242 48.5605C85.8504 64.5281 77.2351 89.6313 43.6367 104.847C43.2191 105.035 42.5306 104.199 42.752 103.798C45.2998 99.1795 47.8933 89.1741 38.2998 87.1943C37.706 87.1182 37.1164 87.0275 36.5303 86.9277C36.5104 86.9245 36.491 86.9206 36.4717 86.917C15.8986 83.3863 0.242424 65.4649 0.242188 43.8828C0.242187 19.765 19.7923 0.213196 43.9082 0.212891ZM43.9072 27.8564C35.0576 27.8568 27.8839 35.0322 27.8838 43.8818C27.8838 52.7316 35.0576 59.9069 43.9072 59.9072C52.7572 59.9072 59.9316 52.7318 59.9316 43.8818C59.9315 35.032 52.7571 27.8564 43.9072 27.8564Z" fill="#E6FD88"></path>
</svg><style>@media (prefers-color-scheme: light) { :root { filter: none; } }
@media (prefers-color-scheme: dark) { :root { filter: none; } }
</style></svg>